<?xml version="1.0" encoding="utf-8"?>
<!-- Generator: Adobe Illustrator 23.0.0, SVG Export Plug-In . SVG Version: 6.00 Build 0)  -->
<svg version="1.1" id="Layer_1" xmlns="http://www.w3.org/2000/svg" xmlns:xlink="http://www.w3.org/1999/xlink" x="0px" y="0px"
	 viewBox="0 0 802 774" style="enable-background:new 0 0 802 774;" xml:space="preserve">
<style type="text/css">
	.st0{opacity:0.14;mask:url(#a_1_);}
	.st1{fill:#FFFFFF;}
	.st2{fill:#FBFBFB;}
	.st3{fill:#F6F6F8;}
	.st4{fill:#F2F2F4;}
	.st5{fill:#EDEDF0;}
	.st6{fill:#E9E9ED;}
	.st7{fill:#E4E4E9;}
	.st8{fill:#E0E0E6;}
	.st9{fill:#DBDBE2;}
	.st10{fill:#D7D7DE;}
	.st11{fill:#D2D2DB;}
	.st12{fill:#CECED7;}
	.st13{fill:#C9C9D3;}
	.st14{fill:#C5C5D0;}
	.st15{fill:#C1C1CC;}
	.st16{fill:#BCBCC8;}
	.st17{fill:#B8B8C5;}
	.st18{fill:#B3B3C1;}
	.st19{fill:#AFAFBE;}
	.st20{fill:#AAAABA;}
	.st21{fill:#A6A6B6;}
	.st22{fill:#A1A1B3;}
	.st23{fill:#9D9DAF;}
	.st24{fill:#9898AB;}
	.st25{fill:#9494A8;}
	.st26{fill:#8F8FA4;}
	.st27{fill:#8B8BA1;}
	.st28{fill:#86869D;}
	.st29{fill:#828299;}
	.st30{fill:#7E7E96;}
	.st31{fill:#797992;}
	.st32{fill:#75758E;}
	.st33{fill:#70708B;}
	.st34{fill:#6C6C87;}
	.st35{fill:#676783;}
	.st36{fill:#636380;}
	.st37{fill:#5E5E7C;}
	.st38{fill:#5A5A79;}
	.st39{fill:#555575;}
	.st40{fill:#515171;}
	.st41{fill:#4C4C6E;}
	.st42{fill:#48486A;}
	.st43{fill:url(#SVGID_1_);}
	.st44{fill:#F9F7F9;}
	.st45{fill:#D3DAED;}
	.st46{fill:#99A7D8;}
	.st47{fill:#EDF0F8;}
	.st48{fill:#5C629E;}
	.st49{fill:#ADB9E0;}
	.st50{fill:#A3B0DC;}
	.st51{fill:#DCE1F1;}
	.st52{fill:#D7DEEF;}
	.st53{fill:#C2CAE8;}
	.st54{fill:#B8C1E4;}
	.st55{opacity:0.4;fill:url(#SVGID_2_);enable-background:new    ;}
	.st56{opacity:0.4;fill:url(#SVGID_3_);enable-background:new    ;}
	.st57{fill:url(#SVGID_4_);}
	.st58{fill:url(#SVGID_5_);}
	.st59{opacity:0.4;fill:url(#SVGID_6_);enable-background:new    ;}
	.st60{opacity:0.4;fill:url(#SVGID_7_);enable-background:new    ;}
	.st61{fill:url(#SVGID_8_);}
	.st62{fill:url(#SVGID_9_);}
	.st63{fill:url(#SVGID_10_);}
	.st64{fill:#EBE9EC;}
	.st65{fill:#F2B1B5;}
	.st66{fill:#363650;}
	.st67{fill:url(#SVGID_11_);}
	.st68{opacity:0.2;fill:#231F20;enable-background:new    ;}
	.st69{fill:url(#SVGID_12_);}
	.st70{fill:url(#SVGID_13_);}
	.st71{opacity:0.35;fill:#D3DAED;enable-background:new    ;}
	.st72{fill:url(#SVGID_14_);}
	.st73{fill:url(#SVGID_15_);}
	.st74{fill:url(#SVGID_16_);}
	.st75{fill:url(#SVGID_17_);}
	.st76{fill:url(#SVGID_18_);}
	.st77{fill:url(#SVGID_19_);}
	.st78{fill:url(#SVGID_20_);}
	.st79{fill:url(#SVGID_21_);}
	.st80{fill:url(#SVGID_22_);}
	.st81{fill:url(#SVGID_23_);}
	.st82{fill:url(#SVGID_24_);}
	.st83{fill:url(#SVGID_25_);}
	.st84{fill:url(#SVGID_26_);}
	.st85{opacity:0.44;fill:url(#SVGID_27_);enable-background:new    ;}
	.st86{fill:url(#SVGID_28_);}
	.st87{opacity:0.4;fill:#FFFFFF;enable-background:new    ;}
	.st88{fill:url(#SVGID_29_);}
	.st89{fill:#EBEDF7;}
	.st90{fill:#D6DCEF;}
	.st91{fill:url(#SVGID_30_);}
	.st92{opacity:0.4;fill:url(#SVGID_31_);enable-background:new    ;}
	.st93{opacity:0.4;fill:url(#SVGID_32_);enable-background:new    ;}
	.st94{fill:url(#SVGID_33_);}
	.st95{fill:url(#SVGID_34_);}
	.st96{fill:none;}
	.st97{opacity:2.440000e-02;fill:#FBFBFB;enable-background:new    ;}
	.st98{opacity:4.880000e-02;fill:#F6F6F8;enable-background:new    ;}
	.st99{opacity:7.320000e-02;fill:#F2F2F4;enable-background:new    ;}
	.st100{opacity:9.760000e-02;fill:#EDEDF0;enable-background:new    ;}
	.st101{opacity:0.122;fill:#E9E9ED;enable-background:new    ;}
	.st102{opacity:0.1463;fill:#E4E4E9;enable-background:new    ;}
	.st103{opacity:0.1707;fill:#E0E0E6;enable-background:new    ;}
	.st104{opacity:0.1951;fill:#DBDBE2;enable-background:new    ;}
	.st105{opacity:0.2195;fill:#D7D7DE;enable-background:new    ;}
	.st106{opacity:0.2439;fill:#D2D2DB;enable-background:new    ;}
	.st107{opacity:0.2683;fill:#CECED7;enable-background:new    ;}
	.st108{opacity:0.2927;fill:#C9C9D3;enable-background:new    ;}
	.st109{opacity:0.3171;fill:#C5C5D0;enable-background:new    ;}
	.st110{opacity:0.3415;fill:#C1C1CC;enable-background:new    ;}
	.st111{opacity:0.3659;fill:#BCBCC8;enable-background:new    ;}
	.st112{opacity:0.3902;fill:#B8B8C5;enable-background:new    ;}
	.st113{opacity:0.4146;fill:#B3B3C1;enable-background:new    ;}
	.st114{opacity:0.439;fill:#AFAFBE;enable-background:new    ;}
	.st115{opacity:0.4634;fill:#AAAABA;enable-background:new    ;}
	.st116{opacity:0.4878;fill:#A6A6B6;enable-background:new    ;}
	.st117{opacity:0.5122;fill:#A1A1B3;enable-background:new    ;}
	.st118{opacity:0.5366;fill:#9D9DAF;enable-background:new    ;}
	.st119{opacity:0.561;fill:#9898AB;enable-background:new    ;}
	.st120{opacity:0.5854;fill:#9494A8;enable-background:new    ;}
	.st121{opacity:0.6098;fill:#8F8FA4;enable-background:new    ;}
	.st122{opacity:0.6341;fill:#8B8BA1;enable-background:new    ;}
	.st123{opacity:0.6585;fill:#86869D;enable-background:new    ;}
	.st124{opacity:0.6829;fill:#828299;enable-background:new    ;}
	.st125{opacity:0.7073;fill:#7E7E96;enable-background:new    ;}
	.st126{opacity:0.7317;fill:#797992;enable-background:new    ;}
	.st127{opacity:0.7561;fill:#75758E;enable-background:new    ;}
	.st128{opacity:0.7805;fill:#70708B;enable-background:new    ;}
	.st129{opacity:0.8049;fill:#6C6C87;enable-background:new    ;}
	.st130{opacity:0.8293;fill:#676783;enable-background:new    ;}
	.st131{opacity:0.8537;fill:#636380;enable-background:new    ;}
	.st132{opacity:0.878;fill:#5E5E7C;enable-background:new    ;}
	.st133{opacity:0.9024;fill:#5A5A79;enable-background:new    ;}
	.st134{opacity:0.9268;fill:#555575;enable-background:new    ;}
	.st135{opacity:0.9512;fill:#515171;enable-background:new    ;}
	.st136{opacity:0.9756;fill:#4C4C6E;enable-background:new    ;}
	.st137{fill:url(#SVGID_35_);}
	.st138{fill:url(#SVGID_36_);}
	.st139{fill:#F7F7F7;}
	.st140{fill:#E5E9F4;}
	.st141{opacity:0.3;fill:#231F20;enable-background:new    ;}
	.st142{fill:#4D5068;}
	.st143{opacity:0.8;}
	.st144{opacity:0.91;}
</style>
<defs>
	<filter id="Adobe_OpacityMaskFilter" filterUnits="userSpaceOnUse" x="616.6" y="391.3" width="130.8" height="75.9">
		<feColorMatrix  type="matrix" values="1 0 0 0 0  0 1 0 0 0  0 0 1 0 0  0 0 0 1 0"/>
	</filter>
</defs>
<mask maskUnits="userSpaceOnUse" x="616.6" y="391.3" width="130.8" height="75.9" id="a_1_">
</mask>
<g class="st0">
	<path class="st1" d="M691.1,391.3l56.3,32.9l-74.5,43l-56.3-32.8L691.1,391.3z"/>
	<path class="st2" d="M691.1,391.3l55.1,32.2l-74.5,43l-55.1-32.1L691.1,391.3z"/>
	<path class="st3" d="M691.1,391.3l53.9,31.5l-74.5,43l-53.9-31.4L691.1,391.3z"/>
	<path class="st4" d="M691.1,391.3l52.7,30.8l-74.5,43l-52.7-30.7L691.1,391.3z"/>
	<path class="st5" d="M691.1,391.3l51.5,30.1l-74.5,43l-51.5-30L691.1,391.3z"/>
	<path class="st6" d="M691.1,391.3l50.3,29.3l-74.5,43.1l-50.3-29.3L691.1,391.3z"/>
	<path class="st7" d="M691.1,391.3l49.1,28.6L665.6,463l-49-28.6L691.1,391.3z"/>
	<path class="st8" d="M691.1,391.3l47.9,27.9l-74.6,43.1l-47.8-27.9L691.1,391.3z"/>
	<path class="st9" d="M691.1,391.3l46.7,27.2l-74.6,43.1l-46.6-27.2L691.1,391.3z"/>
	<path class="st10" d="M691.1,391.3l45.5,26.5L662,460.9l-45.4-26.5L691.1,391.3z"/>
	<path class="st11" d="M691.1,391.3l44.3,25.8l-74.6,43.1l-44.2-25.8L691.1,391.3z"/>
	<path class="st12" d="M691.1,391.3l43,25.1l-74.5,43l-43-25L691.1,391.3z"/>
	<path class="st13" d="M691.1,391.3l41.8,24.4l-74.5,43l-41.8-24.3L691.1,391.3z"/>
	<path class="st14" d="M691.1,391.3l40.6,23.7l-74.5,43l-40.6-23.6L691.1,391.3z"/>
	<path class="st15" d="M691.1,391.3l39.4,23l-74.5,43l-39.4-22.9L691.1,391.3z"/>
	<path class="st16" d="M691.1,391.3l38.2,22.3l-74.5,43l-38.2-22.2L691.1,391.3z"/>
	<path class="st17" d="M691.1,391.3l37,21.6l-74.5,43l-37-21.5L691.1,391.3z"/>
	<path class="st18" d="M691.1,391.3l35.8,20.9l-74.5,43l-35.8-20.8L691.1,391.3z"/>
	<path class="st19" d="M691.1,391.3l34.6,20.2l-74.5,43l-34.6-20.1L691.1,391.3z"/>
	<path class="st20" d="M691.1,391.3l33.4,19.5l-74.6,43l-33.3-19.4L691.1,391.3z"/>
	<path class="st21" d="M691.1,391.3l32.2,18.8l-74.6,43l-32.1-18.7L691.1,391.3z"/>
	<path class="st22" d="M691.1,391.3l31,18.1l-74.6,43l-30.9-18L691.1,391.3z"/>
	<path class="st23" d="M691.1,391.3l29.8,17.3l-74.6,43.1l-29.7-17.3L691.1,391.3z"/>
	<path class="st24" d="M691.1,391.3l28.6,16.6L645.1,451l-28.5-16.6L691.1,391.3z"/>
	<path class="st25" d="M691.1,391.3l27.3,15.9l-74.5,43.1l-27.3-15.9L691.1,391.3z"/>
	<path class="st26" d="M691.1,391.3l26.1,15.2l-74.5,43.1l-26.1-15.2L691.1,391.3z"/>
	<path class="st27" d="M691.1,391.3l24.9,14.5l-74.5,43.1l-24.9-14.5L691.1,391.3z"/>
	<path class="st28" d="M691.1,391.3l23.7,13.8l-74.5,43.1l-23.7-13.8L691.1,391.3z"/>
	<path class="st29" d="M691.1,391.3l22.5,13.1l-74.5,43l-22.5-13L691.1,391.3z"/>
	<path class="st30" d="M691.1,391.3l21.3,12.4l-74.5,43l-21.3-12.3L691.1,391.3z"/>
	<path class="st31" d="M691.1,391.3l20.1,11.7l-74.5,43l-20.1-11.6L691.1,391.3z"/>
	<path class="st32" d="M691.1,391.3l18.9,11l-74.5,43l-18.9-10.9L691.1,391.3z"/>
	<path class="st33" d="M691.1,391.3l17.7,10.3l-74.6,43l-17.6-10.2L691.1,391.3z"/>
	<path class="st34" d="M691.1,391.3l16.5,9.6l-74.6,43l-16.4-9.5L691.1,391.3z"/>
	<path class="st35" d="M691.1,391.3l15.3,8.9l-74.6,43l-15.2-8.8L691.1,391.3z"/>
	<path class="st36" d="M691.1,391.3l14.1,8.2l-74.6,43l-14-8.1L691.1,391.3z"/>
	<path class="st37" d="M691.1,391.3l12.9,7.5l-74.6,43l-12.8-7.4L691.1,391.3z"/>
	<path class="st38" d="M691.1,391.3l11.6,6.8l-74.5,43l-11.6-6.7L691.1,391.3z"/>
	<path class="st39" d="M691.1,391.3l10.4,6.1l-74.5,43l-10.4-6L691.1,391.3z"/>
	<path class="st40" d="M691.1,391.3l9.2,5.3l-74.5,43.1l-9.2-5.3L691.1,391.3z"/>
	<path class="st41" d="M691.1,391.3l8,4.6L624.6,439l-8-4.6L691.1,391.3z"/>
	<path class="st42" d="M691.1,391.3l6.8,3.9l-74.5,43.1l-6.8-3.9L691.1,391.3z"/>
</g>
<linearGradient id="SVGID_1_" gradientUnits="userSpaceOnUse" x1="870.2554" y1="391.8893" x2="957.8554" y2="391.8893" gradientTransform="matrix(-1 0 0 1 1567.3555 -68)">
	<stop  offset="0" style="stop-color:#D3DAED"/>
	<stop  offset="1" style="stop-color:#99A7D8"/>
</linearGradient>
<path class="st43" d="M695,215.6l0.7,1.2c1,0.7,1.4,5.2,1.4,6.4v157c0,7.5-5.1,17.2-11.6,21L626.8,435c-0.9,0.5-4.5,1.5-5.5,1.1
	l-7.6-2.7c-2.5-0.9-4.2-3.3-4.2-5.9V265.3c0-7.5,5.3-16.8,11.9-20.5l53.5-30.9C681.5,210.1,688.7,211.2,695,215.6L695,215.6z"/>
<path class="st44" d="M685.7,215.7c6.5-3.8,11.9-0.7,11.9,6.9V381c0,7.5-5.3,16.8-11.9,20.5l-57.5,33.2c-6.5,3.8-11.9,0.7-11.9-6.9
	V269.4c0-7.5,5.3-16.8,11.9-20.5L685.7,215.7z"/>
<path class="st45" d="M690.9,241.6v128.1L623,408.9V280.8L690.9,241.6z"/>
<path class="st46" d="M648,252.8c0.2,0,0.5-0.1,0.7-0.2l18-10.4c0.7-0.4,0.9-1.2,0.5-1.9s-1.2-0.9-1.9-0.5l-18,10.4
	c-0.7,0.4-0.9,1.2-0.5,1.9C647,252.5,647.5,252.8,648,252.8z"/>
<path class="st47" d="M656.9,394.6c3.9-2.3,7.2-0.5,7.2,4.1s-3.2,10.2-7.2,12.5c-3.9,2.3-7.2,0.4-7.2-4.1
	C649.8,402.5,653,396.9,656.9,394.6z"/>
<path class="st46" d="M656.9,307.1c11.1-6.4,20.2-1.2,20.2,11.7c0,12.8-9.1,28.6-20.2,35s-20.2,1.2-20.2-11.7
	S645.8,313.5,656.9,307.1z"/>
<path class="st48" d="M663.1,341.4v-17l3.5-2l-7.9-5.1l-7.9,14.1l3.7-2.1l0.1,17L663.1,341.4z"/>
<path class="st49" d="M324.4,211l98.1-56.6l98,56.6l-98,56.6L324.4,211z"/>
<path class="st50" d="M324.4,211v284.3l98.1,56.6V267.6L324.4,211z"/>
<path class="st46" d="M422.5,551.9l98-56.6V211l-98,56.6V551.9z"/>
<path class="st48" d="M422.5,384l-0.9-0.5l-97.2-56.1v-3.9l98.1,56.7l98-56.7v3.9L422.5,384z"/>
<path class="st48" d="M422.5,440.2L324.4,384v-4l98.1,56.4l98-56.7v3.9L422.5,440.2z"/>
<path class="st48" d="M422.5,496.4l-98.1-56.2v-4l98.1,56.4l98-56.4v4L422.5,496.4z"/>
<path class="st48" d="M428.6,331.4L447,321v7l-18.4,10.4V331.4z"/>
<path class="st48" d="M450.6,319l18.3-10.4v7L450.6,326V319z"/>
<path class="st48" d="M428.6,388.4L447,378v7l-18.4,10.4V388.4z"/>
<path class="st48" d="M450.6,376l18.3-10.4v7L450.6,383V376z"/>
<path class="st48" d="M428.6,445.4L447,435v7l-18.4,10.4V445.4z"/>
<path class="st48" d="M450.6,433.1l18.3-10.5v7l-18.3,10.5V433.1z"/>
<path class="st48" d="M428.6,502.5l18.4-10.4v6.9l-18.4,10.5V502.5z"/>
<path class="st48" d="M450.6,490.1l18.3-10.4v7l-18.3,10.4V490.1z"/>
<path class="st48" d="M342.1,306.6c-1.6-0.9-2.8-0.2-2.8,1.7s1.3,4,2.9,4.9s2.8,0.2,2.8-1.7C344.9,309.8,343.7,307.6,342.1,306.6z"
	/>
<path class="st48" d="M353.4,314c-1.6-0.9-2.8-0.2-2.8,1.7c0,1.8,1.3,4,2.9,4.9s2.8,0.2,2.8-1.6C356.2,317.1,354.9,314.9,353.4,314z
	"/>
<path class="st48" d="M422.5,326.1l-0.9-0.5l-97.2-56.1v-3.9l98.1,56.7l98-56.7v3.9L422.5,326.1z"/>
<path class="st48" d="M428.6,273.5l18.4-10.4v7l-18.4,10.4V273.5z"/>
<path class="st48" d="M450.6,261.1l18.3-10.4v7l-18.3,10.4V261.1z"/>
<path class="st48" d="M342.1,248.8c-1.6-0.9-2.8-0.2-2.8,1.7c0,1.8,1.3,4,2.9,4.9s2.8,0.2,2.8-1.7
	C344.9,251.9,343.7,249.7,342.1,248.8z"/>
<path class="st48" d="M353.4,256.1c-1.6-0.9-2.8-0.2-2.8,1.7c0,1.8,1.3,4,2.9,4.9s2.8,0.2,2.8-1.7
	C356.2,259.3,354.9,257,353.4,256.1z"/>
<path class="st48" d="M342.1,364.3c-1.6-0.9-2.8-0.2-2.8,1.7c0,1.8,1.3,4,2.9,4.9s2.8,0.2,2.8-1.6
	C344.9,367.4,343.7,365.2,342.1,364.3z"/>
<path class="st48" d="M353.4,371.6c-1.6-0.9-2.8-0.2-2.8,1.7c0,1.8,1.3,4,2.9,4.9s2.8,0.2,2.8-1.6
	C356.2,374.7,354.9,372.5,353.4,371.6z"/>
<path class="st48" d="M342.1,421c-1.6-0.9-2.8-0.2-2.8,1.7c0,1.8,1.3,4,2.9,4.9s2.8,0.2,2.8-1.6C344.9,424.2,343.7,421.9,342.1,421z
	"/>
<path class="st48" d="M353.4,428.4c-1.6-0.9-2.8-0.2-2.8,1.7c0,1.8,1.3,4,2.9,4.9s2.8,0.2,2.8-1.7
	C356.2,431.5,354.9,429.3,353.4,428.4z"/>
<path class="st48" d="M342.1,477.8c-1.6-0.9-2.8-0.2-2.8,1.7c0,1.8,1.3,4,2.9,4.9s2.8,0.2,2.8-1.7
	C344.9,480.9,343.7,478.7,342.1,477.8z"/>
<path class="st48" d="M353.4,485.2c-1.6-0.9-2.8-0.2-2.8,1.6s1.3,4,2.9,4.9s2.8,0.2,2.8-1.6C356.2,488.3,354.9,486.1,353.4,485.2z"
	/>
<path class="st51" d="M213.8,332.2l98-56.6l98,56.6l-98,56.6L213.8,332.2z"/>
<path class="st52" d="M213.8,332.2v226.4l98,56.6V388.8L213.8,332.2z"/>
<path class="st45" d="M311.8,615.2l98-56.6V332.2l-98,56.6V615.2z"/>
<path class="st46" d="M311.8,447.3l-0.8-0.5l-97.2-56.1v-3.9l98,56.7l98-56.7v3.9L311.8,447.3z"/>
<path class="st46" d="M311.8,503.5l-98-56.2v-4l98,56.4l98-56.7v3.9L311.8,503.5z"/>
<path class="st46" d="M311.8,559.7l-98-56.2v-3.9l98,56.3l98-56.3v3.9L311.8,559.7z"/>
<path class="st46" d="M318,394.7l18.3-10.4v7L318,401.7V394.7z"/>
<path class="st46" d="M339.9,382.3l18.4-10.4v7l-18.4,10.4V382.3z"/>
<path class="st46" d="M318,451.7l18.3-10.4v7L318,458.7V451.7z"/>
<path class="st46" d="M339.9,439.4l18.4-10.4v7l-18.4,10.4V439.4z"/>
<path class="st46" d="M318,508.8l18.3-10.4v7L318,515.8V508.8z"/>
<path class="st46" d="M339.9,496.4l18.4-10.4v7l-18.4,10.4V496.4z"/>
<path class="st46" d="M318,565.8l18.3-10.4v7L318,572.8V565.8z"/>
<path class="st46" d="M339.9,553.4l18.4-10.4v7l-18.4,10.4V553.4z"/>
<path class="st45" d="M350.7,354.6c21.5-12.3,21.5-32.5,0-44.8s-56.5-12.3-77.8,0s-21.3,32.5,0,44.8S329.2,366.9,350.7,354.6z"/>
<path class="st42" d="M272.8,316.4c21.3-12.3,56.4-12.3,77.8,0c9.3,5.3,14.5,12.1,15.8,19.1c1.7-9.2-3.6-18.7-15.8-25.7
	c-21.5-12.3-56.5-12.3-77.8,0c-12.1,7-17.4,16.5-15.7,25.7C258.4,328.5,263.6,321.7,272.8,316.4z"/>
<path class="st46" d="M231.4,370c-1.6-0.9-2.8-0.2-2.8,1.6s1.3,4,2.9,4.9s2.8,0.2,2.8-1.7C234.3,373.1,233,370.9,231.4,370z"/>
<path class="st46" d="M242.7,377.3c-1.6-0.9-2.8-0.2-2.8,1.7c0,1.8,1.3,4,2.9,4.9s2.8,0.2,2.8-1.7
	C245.5,380.5,244.3,378.2,242.7,377.3z"/>
<path class="st46" d="M231.4,427.6c-1.6-0.9-2.8-0.2-2.8,1.7c0,1.8,1.3,4,2.9,4.9s2.8,0.2,2.8-1.7
	C234.3,430.7,233,428.5,231.4,427.6z"/>
<path class="st46" d="M242.7,434.9c-1.6-0.9-2.8-0.2-2.8,1.6s1.3,4,2.9,4.9s2.8,0.2,2.8-1.7C245.5,438.1,244.3,435.8,242.7,434.9z"
	/>
<path class="st46" d="M231.4,484.4c-1.6-0.9-2.8-0.2-2.8,1.7s1.3,4,2.9,4.9s2.8,0.2,2.8-1.6C234.3,487.5,233,485.3,231.4,484.4z"/>
<path class="st46" d="M242.7,491.7c-1.6-0.9-2.8-0.2-2.8,1.7c0,1.8,1.3,4,2.9,4.9s2.8,0.2,2.8-1.7
	C245.5,494.9,244.3,492.6,242.7,491.7z"/>
<path class="st46" d="M231.4,541.1c-1.6-0.9-2.8-0.2-2.8,1.7c0,1.8,1.3,4,2.9,4.9s2.8,0.2,2.8-1.7
	C234.3,544.3,233,542.1,231.4,541.1z"/>
<path class="st46" d="M242.7,548.5c-1.6-0.9-2.8-0.2-2.8,1.7c0,1.8,1.3,4,2.9,4.9s2.8,0.2,2.8-1.7
	C245.5,551.6,244.3,549.4,242.7,548.5z"/>
<path class="st51" d="M435.7,387.4l98-56.6l98,56.6l-98,57.4L435.7,387.4z"/>
<path class="st52" d="M435.7,387.4v171.8l98,56.6V444L435.7,387.4z"/>
<path class="st45" d="M533.7,615.8l98-56.6V387.4l-98,56.6V615.8z"/>
<path class="st46" d="M533.7,504.1l-98-56.2V444l98,56.3l98-56.7v3.9L533.7,504.1z"/>
<path class="st46" d="M533.7,560.4l-98-56.3v-3.9l98,56.3l98-56.3v3.9L533.7,560.4z"/>
<path class="st46" d="M539.9,452.4l18.3-10.5v7l-18.3,10.5V452.4z"/>
<path class="st46" d="M561.8,440l18.4-10.4v7L561.8,447V440z"/>
<path class="st46" d="M539.9,509.4l18.3-10.4v7l-18.3,10.4V509.4z"/>
<path class="st46" d="M561.8,497l18.4-10.4v7L561.8,504V497z"/>
<path class="st46" d="M539.9,566.4l18.3-10.4v7l-18.3,10.4V566.4z"/>
<path class="st46" d="M561.8,554l18.4-10.4v7L561.8,561V554z"/>
<path class="st45" d="M572.6,409.8c21.5-12.3,21.5-32.5,0-44.8s-56.5-12.3-77.8,0s-21.3,32.5,0,44.8S551.1,422.1,572.6,409.8z"/>
<path class="st42" d="M494.7,371.6c21.3-12.3,56.4-12.3,77.8,0c9.3,5.3,14.5,12.1,15.8,19.1c1.7-9.2-3.6-18.7-15.8-25.7
	c-21.5-12.3-56.5-12.3-77.8,0c-12.1,7-17.4,16.5-15.7,25.7C480.3,383.7,485.5,376.9,494.7,371.6z"/>
<path class="st46" d="M453.3,428.2c-1.6-0.9-2.8-0.2-2.8,1.6s1.3,4,2.9,4.9s2.8,0.2,2.8-1.7C456.2,431.3,454.9,429.1,453.3,428.2z"
	/>
<path class="st46" d="M464.6,435.6c-1.6-0.9-2.8-0.2-2.8,1.6s1.3,4,2.9,4.9s2.9,0.2,2.8-1.6S466.1,436.5,464.6,435.6z"/>
<path class="st46" d="M453.3,485c-1.6-0.9-2.8-0.2-2.8,1.7s1.3,4,2.9,4.9s2.8,0.2,2.8-1.6C456.2,488.1,454.9,485.9,453.3,485z"/>
<path class="st46" d="M464.6,492.3c-1.6-0.9-2.8-0.2-2.8,1.7c0,1.8,1.3,4,2.9,4.9s2.9,0.2,2.8-1.6S466.1,493.2,464.6,492.3z"/>
<path class="st46" d="M453.3,541.8c-1.6-0.9-2.8-0.2-2.8,1.7c0,1.8,1.3,4,2.9,4.9s2.8,0.2,2.8-1.7
	C456.2,544.9,454.9,542.7,453.3,541.8z"/>
<path class="st46" d="M464.6,549.1c-1.6-0.9-2.8-0.2-2.8,1.7c0,1.8,1.3,4,2.9,4.9s2.9,0.2,2.8-1.7
	C467.4,552.2,466.1,550,464.6,549.1z"/>
<path class="st53" d="M171.8,593.8l65.4-37.8l65.5,37.8l-65.5,37.8L171.8,593.8z"/>
<path class="st54" d="M171.8,593.8v26.6l65.4,37.7v-26.5L171.8,593.8z"/>
<path class="st49" d="M237.2,658.1l65.5-37.7v-26.6l-65.5,37.8L237.2,658.1z"/>
<path class="st42" d="M241.4,633.7l12.2-6.9v4.7l-12.2,6.9V633.7z"/>
<path class="st42" d="M256,625.5l12.3-7v4.7l-12.3,6.9L256,625.5z"/>
<path class="st42" d="M183.6,613.6c-1-0.6-1.9-0.1-1.9,1.1s0.9,2.7,1.9,3.3s1.9,0.1,1.9-1.1S184.6,614.2,183.6,613.6z"/>
<path class="st42" d="M191.1,618.5c-1-0.6-1.9-0.1-1.9,1.1s0.9,2.7,1.9,3.3s1.9,0.1,1.9-1.1S192.2,619.1,191.1,618.5z"/>
<linearGradient id="SVGID_2_" gradientUnits="userSpaceOnUse" x1="237.366" y1="555.8296" x2="263.6068" y2="555.8296" gradientTransform="matrix(1 0 0 1 0 -68)">
	<stop  offset="0" style="stop-color:#FF9800"/>
	<stop  offset="1" style="stop-color:#FFC107"/>
</linearGradient>
<path class="st55" d="M240.1,585.5c-1.5,0-2.7-1.2-2.7-2.7V414.4c0-6.9,3.7-13.4,9.8-16.8l12.4-7.1c1.3-0.7,3-0.3,3.7,1s0.3,3-1,3.7
	l-12.4,7.1c-4.3,2.5-7,7.1-7,12.1v168.4C242.8,584.3,241.6,585.5,240.1,585.5L240.1,585.5z"/>
<linearGradient id="SVGID_3_" gradientUnits="userSpaceOnUse" x1="257.566" y1="568.0074" x2="283.8068" y2="568.0074" gradientTransform="matrix(1 0 0 1 0 -68)">
	<stop  offset="0" style="stop-color:#FF9800"/>
	<stop  offset="1" style="stop-color:#FFC107"/>
</linearGradient>
<path class="st56" d="M260.3,597.7c-1.5,0-2.7-1.2-2.7-2.7V426.6c0-6.9,3.7-13.4,9.8-16.8l12.4-7.1c1.3-0.8,3-0.3,3.7,1s0.3,3-1,3.7
	l-12.4,7.1c-4.3,2.5-7,7.1-7,12.1V595C263,596.5,261.8,597.7,260.3,597.7z"/>
<linearGradient id="SVGID_4_" gradientUnits="userSpaceOnUse" x1="239.2" y1="555.85" x2="261.8" y2="555.85" gradientTransform="matrix(1 0 0 1 0 -68)">
	<stop  offset="0" style="stop-color:#FF9800"/>
	<stop  offset="1" style="stop-color:#FFC107"/>
</linearGradient>
<path class="st57" d="M240.1,583.7c-0.5,0-0.9-0.4-0.9-0.9V414.4c0-6.3,3.4-12.1,8.9-15.2l12.4-7.1c0.4-0.2,1-0.1,1.2,0.3
	s0.1,1-0.3,1.2l-12.4,7.1c-4.9,2.8-7.9,8-7.9,13.7v168.4C241,583.3,240.6,583.7,240.1,583.7L240.1,583.7z"/>
<linearGradient id="SVGID_5_" gradientUnits="userSpaceOnUse" x1="259.4" y1="568.05" x2="282" y2="568.05" gradientTransform="matrix(1 0 0 1 0 -68)">
	<stop  offset="0" style="stop-color:#FF9800"/>
	<stop  offset="1" style="stop-color:#FFC107"/>
</linearGradient>
<path class="st58" d="M260.3,595.9c-0.5,0-0.9-0.4-0.9-0.9V426.6c0-6.3,3.4-12.1,8.9-15.2l12.4-7.1c0.4-0.2,1-0.1,1.2,0.3
	s0.1,1-0.3,1.2l-12.4,7.1c-4.9,2.8-7.9,8-7.9,13.7V595C261.2,595.5,260.8,595.9,260.3,595.9L260.3,595.9z"/>
<linearGradient id="SVGID_6_" gradientUnits="userSpaceOnUse" x1="479.15" y1="655.2795" x2="499.0374" y2="655.2795" gradientTransform="matrix(1 0 0 1 0 -68)">
	<stop  offset="0" style="stop-color:#FF9800"/>
	<stop  offset="1" style="stop-color:#FFC107"/>
</linearGradient>
<path class="st59" d="M481.9,605.8c-1.5,0-2.7-1.2-2.7-2.7v-13.3c0-6.9,3.7-13.4,9.8-16.8l6-3.9c1.3-0.7,3-0.3,3.7,1s0.3,3-1,3.7
	l-6,3.9c-4.3,2.5-7,7.1-7,12.1v13.3C484.6,604.6,483.4,605.8,481.9,605.8z"/>
<linearGradient id="SVGID_7_" gradientUnits="userSpaceOnUse" x1="492.261" y1="663.0795" x2="512.149" y2="663.0795" gradientTransform="matrix(1 0 0 1 0 -68)">
	<stop  offset="0" style="stop-color:#FF9800"/>
	<stop  offset="1" style="stop-color:#FFC107"/>
</linearGradient>
<path class="st60" d="M495,613.6c-1.5,0-2.7-1.2-2.7-2.7v-13.3c0-6.9,3.7-13.4,9.8-16.8l6-3.9c1.3-0.7,3-0.3,3.7,1s0.3,3-1,3.7
	l-6,3.9c-4.3,2.5-7,7.1-7,12.1v13.3C497.7,612.4,496.5,613.6,495,613.6z"/>
<linearGradient id="SVGID_8_" gradientUnits="userSpaceOnUse" x1="480.963" y1="655.3" x2="497.2238" y2="655.3" gradientTransform="matrix(1 0 0 1 0 -68)">
	<stop  offset="0" style="stop-color:#FF9800"/>
	<stop  offset="1" style="stop-color:#FFC107"/>
</linearGradient>
<path class="st61" d="M481.9,604c-0.5,0-0.9-0.4-0.9-0.9v-13.3c0-6.3,3.4-12.1,8.9-15.2l6-3.9c0.4-0.2,1-0.1,1.2,0.3s0.1,1-0.3,1.2
	l-6,3.9c-4.9,2.8-7.9,8-7.9,13.7v13.3C482.8,603.6,482.4,604,481.9,604L481.9,604z"/>
<linearGradient id="SVGID_9_" gradientUnits="userSpaceOnUse" x1="494.077" y1="663.1" x2="510.3351" y2="663.1" gradientTransform="matrix(1 0 0 1 0 -68)">
	<stop  offset="0" style="stop-color:#FF9800"/>
	<stop  offset="1" style="stop-color:#FFC107"/>
</linearGradient>
<path class="st62" d="M495,611.8c-0.5,0-0.9-0.4-0.9-0.9v-13.3c0-6.3,3.4-12.1,8.9-15.2l6-3.9c0.4-0.2,1-0.1,1.2,0.3s0.1,1-0.3,1.2
	l-6,3.9c-4.9,2.8-7.9,8-7.9,13.7v13.3C495.9,611.4,495.5,611.8,495,611.8L495,611.8z"/>
<linearGradient id="SVGID_10_" gradientUnits="userSpaceOnUse" x1="1279.6172" y1="720.3939" x2="1355.1382" y2="720.3939" gradientTransform="matrix(-1 0 0 1 1444.1172 -68)">
	<stop  offset="0" style="stop-color:#EBE9EC"/>
	<stop  offset="0.9962" style="stop-color:#99A7D8"/>
</linearGradient>
<path class="st63" d="M110.4,631.9c3.3-1.9,8.7-1.9,12.1,0l42,24v3.4c0,0.6-0.3,1.2-0.9,1.5l-19.9,12c-3.3,2-8.7,2-12,0.1
	l-41.2-23.7c-1-0.6-1.6-1.6-1.6-2.7V644L110.4,631.9z"/>
<path class="st44" d="M110.4,629.8c3.3-1.9,8.7-1.9,12.1,0l39.5,22.8c3.3,1.9,3.3,5.1,0.1,7.1l-18.4,11.1c-3.3,2-8.7,2-12,0.1
	l-40.3-23.2c-3.3-1.9-3.3-5,0-7L110.4,629.8z"/>
<path class="st64" d="M111.4,638c1.5-0.8,3.9-0.8,5.3,0l28.9,16.5c1.5,0.8,1.5,2.2,0,3.1l-8.1,4.9c-1.4,0.9-3.8,0.9-5.3,0.1
	L103,645.9c-1.5-0.8-1.5-2.2,0-3.1L111.4,638z"/>
<path class="st65" d="M131,652.6c0.2,0.3,0.6,0.3,0.9,0l1.3-1.2c0.2-0.2,0.3-0.6,0-0.9c-0.2-0.3-0.6-0.3-0.9,0l-1.3,1.2
	C130.8,652,130.8,652.4,131,652.6z"/>
<path class="st66" d="M113.5,712.5l2.2-1.3v-1l2.2-0.3l5.1-2.9c1.3-0.7,1.1-2.6-0.3-3.1c-1-0.4-2-0.3-3,0.2l-3.9,1.9l-5.4,2l0.1,2
	c0.1,1.5,1.3,2.6,2.7,2.6L113.5,712.5z"/>
<path class="st42" d="M112.7,711.9h0.2l2.2-1.3v-1l2.2-0.3l5.1-2.9c0.9-0.5,1.1-1.6,0.6-2.3c1.1,0.6,1.2,2.3,0,3l-5.1,2.9l-2.2,0.3
	v1l-2.2,1.3h-0.2c-0.9,0-1.7-0.5-2.2-1.2C111.5,711.7,112.1,711.9,112.7,711.9z"/>
<path class="st66" d="M105.3,706.9l2.2-1.3v-1l2.2-0.3l5.1-2.9c1.3-0.7,1.1-2.6-0.3-3.1c-1-0.4-2-0.3-3,0.2l-3.9,1.9l-5.4,2l0.1,2
	c0.1,1.5,1.3,2.6,2.7,2.6L105.3,706.9z"/>
<path class="st42" d="M104.4,706.3h0.2l2.2-1.3v-1l2.2-0.3l5.1-2.9c0.9-0.5,1.1-1.6,0.6-2.3c1.1,0.6,1.2,2.3,0,3l-5.1,2.9l-2.2,0.3
	v1l-2.2,1.3H105c-0.9,0-1.7-0.5-2.2-1.2C103.3,706.1,103.8,706.3,104.4,706.3z"/>
<path class="st42" d="M105,704.3c1.6,0,2.8-0.6,2.8-2.2l1.6-41.9c0-1.6-2.8-2.8-4.4-2.8s-2.8,1.3-2.8,2.8v41.9
	C102.2,703.7,103.5,704.3,105,704.3z"/>
<path class="st42" d="M113.1,709.1c1.5,0,2.7-0.2,2.8-1.7l1.6-24.5v-0.2l-1.6-23c-0.1-1.6-1.4-2.7-3-2.6s-6.7,1.5-6.6,3.1l4.8,22.8
	l-0.8,24.1c-0.1,1.6,1,2,2.6,2.1C112.9,709.1,113,709.1,113.1,709.1L113.1,709.1z"/>
<path class="st65" d="M119.4,644.4c0,0.3,0.2,0.6,0.6,0.7l2.6,0.2c0.3,0,0.7-0.2,0.7-0.6c0-0.3-0.2-0.6-0.6-0.7l-2.6-0.2
	C119.7,643.8,119.4,644,119.4,644.4z"/>
<path class="st65" d="M117.8,646.4c0.4-0.2,0.7-0.3,1.1-0.5l3.9-2.1c0.9-0.5,1.2-1.7,0.7-2.6s-1.6-1.2-2.6-0.7l-3.9,2.1
	c-4.7,2.6-6.7,4.5-10.7,0.9c-0.8-0.7-2-0.7-2.7,0.1s-0.7,2,0.1,2.7C108.7,650.7,111.8,649.1,117.8,646.4z"/>
<linearGradient id="SVGID_11_" gradientUnits="userSpaceOnUse" x1="1323.9879" y1="713.6871" x2="1341.2418" y2="713.6871" gradientTransform="matrix(-1 0 0 1 1444.1172 -68)">
	<stop  offset="0.1499" style="stop-color:#FF9800"/>
	<stop  offset="1" style="stop-color:#FFC107"/>
</linearGradient>
<path class="st67" d="M103.6,646.4c-0.9-0.8-1-2.2-0.1-3.1c0.8-0.9,2.2-1,3.1-0.1c3.9,3.5,5.7,1.6,10.3-0.9c1.1-0.6,2.4-0.2,3,0.9
	s0.2,2.4-0.9,3c-0.4,0.2-0.7,0.4-1.1,0.6C111.9,649.5,108.6,651,103.6,646.4z"/>
<path class="st68" d="M106.6,643.2c3.6,3.3,5.4,1.9,9.3-0.3c0.6,1.4,0.9,2.8,1.1,4.3c-5.5,2.5-8.7,3.6-13.4-0.7
	c-0.9-0.8-1-2.2-0.1-3.1C104.3,642.4,105.7,642.4,106.6,643.2z"/>
<linearGradient id="SVGID_12_" gradientUnits="userSpaceOnUse" x1="1326.9172" y1="720.2367" x2="1342.3779" y2="720.2367" gradientTransform="matrix(-1 0 0 1 1444.1172 -68)">
	<stop  offset="0.1499" style="stop-color:#FF9800"/>
	<stop  offset="1" style="stop-color:#FFC107"/>
</linearGradient>
<path class="st69" d="M101.9,637.5c0.4-2.7,2.9-4.4,5.3-3.1c0.3,0.1,0.5,0.3,0.8,0.5c6.8,4.4,8.4,10,8.4,16.2l-0.1,5.2l0.9,13.3
	c-1.1,0.7-2.4,1-3.9,0.9c-0.1,0-0.9-4.4-1-4.4c-0.3,0-0.7,4.3-1,4.3c-4-0.7-7.8-2.4-9.3-5.4l0.5-15.7
	C102.4,649.2,101.3,641.9,101.9,637.5z"/>
<path class="st65" d="M107.7,638.1c0.8,0,1.4-0.6,1.4-1.4v-6.4h-2.8v6.4C106.3,637.5,106.9,638.1,107.7,638.1z"/>
<path class="st65" d="M104.4,634.5c4.6,0,8.4-1.9,8.4-6.6v-5.4h-8.4V634.5z"/>
<path class="st42" d="M101.7,628.7c0-0.3,0-0.6,0-0.9c0-1.2-0.1-2.4,0.1-3.6c0.2-1.5,1-3.1,2.4-3.7c0.8-0.4,1.8-0.4,2.7-0.4h5.6
	c0.8,0,1.7,0,2.4,0.5c1.3,0.9,0.7,2.6-0.1,3.6c-0.4,0.5-1,1-1.6,1.4c-0.6,0.3-1.6,0-2,0.7c-0.5,0.8,0.5,3.5-0.7,3.9
	c-0.9,0.3-0.8-0.7-0.9-1.2c-0.1-0.3-0.3-0.7-0.7-0.7s-0.7,0.5-0.8,0.9c-0.2,0.8,0.1,1.7,0.2,2.5s0,1.8-0.6,2.4
	c-0.2,0.2-0.5,0.3-0.8,0.4c-0.8,0.3-2.4,0.7-3.2,0.1c-1.1-0.9-1.8-1.7-1.9-3.2C101.6,630.4,101.7,629.6,101.7,628.7z"/>
<path class="st65" d="M126.2,655.9h1.2l6.8-0.3c1,0,1.8-0.9,1.8-2c-0.1-1-1-1.9-2-1.8l-6.9,0.3c-5.4,0.4-10.4-2.7-12.5-7.6l-1.3-3.1
	c-0.4-1-1.5-1.4-2.5-1s-1.4,1.5-1,2.5l1.3,3.1C113.8,652,119.7,655.9,126.2,655.9L126.2,655.9z"/>
<path class="st68" d="M110.1,643.6c-0.4-1.2,0.3-2.4,1.4-2.8c1.2-0.4,2,0.4,2.3,1.6l1.4,3.1c0.2,0.7,0.5,1.3,0.8,2
	c0.1,1.2,0.2,2.3,0.2,3.5l-0.1,3.5c-2.4-2-4.2-4.6-5.1-7.7L110.1,643.6z"/>
<linearGradient id="SVGID_13_" gradientUnits="userSpaceOnUse" x1="1348.0615" y1="706.41" x2="1305.8586" y2="725.4014" gradientTransform="matrix(-1 0 0 1 1444.1172 -68)">
	<stop  offset="0" style="stop-color:#FF9800"/>
	<stop  offset="1" style="stop-color:#FFC107"/>
</linearGradient>
<path class="st70" d="M110.9,646l-1.3-3.1c-0.5-1.1,0.1-2.4,1.2-2.9s2.4,0.1,2.9,1.2l1.3,3.1c2,4.8,6.9,7.8,12.1,7.5l2.6-0.2
	c1.2-0.1,2.3,0.8,2.4,2s-0.8,2.3-2,2.4l-2.6,0.2c-0.4,0-0.8,0-1.2,0C119.6,656.2,113.5,652.2,110.9,646z"/>
<path class="st71" d="M170,630.3c0,1.4-1,1.9-2.2,1.2l-25.3-15c-1.2-0.7-2.2-2.4-2.2-3.8l-0.2-20.9c0-1.4,1-1.9,2.1-1.2l25.6,15
	c1.2,0.7,2.2,2.4,2.2,3.8L170,630.3z"/>
<path class="st71" d="M166.1,636.6c0,1.6-1.2,2.3-2.6,1.5l-29.9-17.7c-1.4-0.8-2.6-2.9-2.6-4.5l-0.3-24.6c0-1.6,1.1-2.3,2.5-1.5
	l30.2,17.7c1.4,0.8,2.6,2.8,2.6,4.5L166.1,636.6z"/>
<path class="st71" d="M162.1,644.9c0,1.9-1.4,2.7-3,1.7L124,625.8c-1.7-1-3-3.4-3-5.3l-0.3-29c0-1.9,1.3-2.7,3-1.7l35.5,20.8
	c1.7,1,3,3.3,3,5.3L162.1,644.9z"/>
<path class="st45" d="M161,645.6v-28.9c0-1.9-1.4-4.3-3-5.3l-35.5-20.8c-0.6-0.3-1.1-0.5-1.6-0.4c0.5-0.8,1.5-1,2.6-0.3l35.5,20.8
	c1.7,1,3,3.3,3,5.3v28.9c0,1.2-0.6,2-1.4,2.1C160.9,646.6,161,646.2,161,645.6L161,645.6z"/>
<path class="st45" d="M162,645.5L162,645.5c0,0.3-0.1,0.4-0.2,0.6v0.1c-0.1,0.1-0.1,0.2-0.2,0.3l-0.1,0.1c-0.1,0.1-0.2,0.2-0.3,0.2
	c0,0-0.1,0-0.1,0.1c-0.1,0-0.2,0.1-0.3,0.1h-0.1c0.2-0.4,0.3-0.8,0.3-1.4v-12.8c0.1,0.1,0.2,0.3,0.3,0.4c0.5,0.7,0.7,1.1,0.7,1.7
	v4.5v5.4C162.1,645.1,162.1,645.3,162,645.5L162,645.5z"/>
<linearGradient id="SVGID_14_" gradientUnits="userSpaceOnUse" x1="367.6" y1="721.55" x2="412.5" y2="721.55" gradientTransform="matrix(1 0 0 1 0 -68)">
	<stop  offset="0" style="stop-color:#D3DAED"/>
	<stop  offset="1" style="stop-color:#99A7D8"/>
</linearGradient>
<path class="st72" d="M367.6,653.5l22.5-12.9l22.4,12.9l-22.4,13L367.6,653.5z"/>
<linearGradient id="SVGID_15_" gradientUnits="userSpaceOnUse" x1="390.07" y1="732.55" x2="412.523" y2="732.55" gradientTransform="matrix(1 0 0 1 0 -68)">
	<stop  offset="0" style="stop-color:#D3DAED"/>
	<stop  offset="1" style="stop-color:#99A7D8"/>
</linearGradient>
<path class="st73" d="M412.5,653.5v9.1l-22.4,13v-9.1L412.5,653.5z"/>
<linearGradient id="SVGID_16_" gradientUnits="userSpaceOnUse" x1="367.6" y1="732.55" x2="390.053" y2="732.55" gradientTransform="matrix(1 0 0 1 0 -68)">
	<stop  offset="0" style="stop-color:#D3DAED"/>
	<stop  offset="1" style="stop-color:#99A7D8"/>
</linearGradient>
<path class="st74" d="M367.6,653.5v9.1l22.5,13v-9.1L367.6,653.5z"/>
<linearGradient id="SVGID_17_" gradientUnits="userSpaceOnUse" x1="394.873" y1="732.55" x2="407.716" y2="732.55" gradientTransform="matrix(1 0 0 1 0 -68)">
	<stop  offset="0.1499" style="stop-color:#FF9800"/>
	<stop  offset="1" style="stop-color:#FFC107"/>
</linearGradient>
<path class="st75" d="M394.9,667.3l12.8-7.3v1.8l-12.8,7.3V667.3z"/>
<linearGradient id="SVGID_18_" gradientUnits="userSpaceOnUse" x1="367.6" y1="707.15" x2="412.5" y2="707.15" gradientTransform="matrix(1 0 0 1 0 -68)">
	<stop  offset="0" style="stop-color:#D3DAED"/>
	<stop  offset="1" style="stop-color:#99A7D8"/>
</linearGradient>
<path class="st76" d="M367.6,639.1l22.5-12.9l22.4,12.9l-22.4,13L367.6,639.1z"/>
<linearGradient id="SVGID_19_" gradientUnits="userSpaceOnUse" x1="390.07" y1="718.15" x2="412.523" y2="718.15" gradientTransform="matrix(1 0 0 1 0 -68)">
	<stop  offset="0" style="stop-color:#D3DAED"/>
	<stop  offset="1" style="stop-color:#99A7D8"/>
</linearGradient>
<path class="st77" d="M412.5,639.1v9.1l-22.4,13v-9.1L412.5,639.1z"/>
<linearGradient id="SVGID_20_" gradientUnits="userSpaceOnUse" x1="367.6" y1="718.15" x2="390.053" y2="718.15" gradientTransform="matrix(1 0 0 1 0 -68)">
	<stop  offset="0" style="stop-color:#D3DAED"/>
	<stop  offset="1" style="stop-color:#99A7D8"/>
</linearGradient>
<path class="st78" d="M367.6,639.1v9.1l22.5,13v-9.1L367.6,639.1z"/>
<linearGradient id="SVGID_21_" gradientUnits="userSpaceOnUse" x1="394.873" y1="718.2" x2="407.716" y2="718.2" gradientTransform="matrix(1 0 0 1 0 -68)">
	<stop  offset="0.1499" style="stop-color:#FF9800"/>
	<stop  offset="1" style="stop-color:#FFC107"/>
</linearGradient>
<path class="st79" d="M394.9,652.9l12.8-7.3v1.8l-12.8,7.4V652.9z"/>
<linearGradient id="SVGID_22_" gradientUnits="userSpaceOnUse" x1="367.6" y1="692.75" x2="412.5" y2="692.75" gradientTransform="matrix(1 0 0 1 0 -68)">
	<stop  offset="0" style="stop-color:#D3DAED"/>
	<stop  offset="1" style="stop-color:#99A7D8"/>
</linearGradient>
<path class="st80" d="M367.6,624.8l22.5-13l22.4,13l-22.4,12.9L367.6,624.8z"/>
<linearGradient id="SVGID_23_" gradientUnits="userSpaceOnUse" x1="390.07" y1="703.8" x2="412.523" y2="703.8" gradientTransform="matrix(1 0 0 1 0 -68)">
	<stop  offset="0" style="stop-color:#D3DAED"/>
	<stop  offset="1" style="stop-color:#99A7D8"/>
</linearGradient>
<path class="st81" d="M412.5,624.8v9.1l-22.4,12.9v-9.1L412.5,624.8z"/>
<linearGradient id="SVGID_24_" gradientUnits="userSpaceOnUse" x1="367.6" y1="703.8" x2="390.053" y2="703.8" gradientTransform="matrix(1 0 0 1 0 -68)">
	<stop  offset="0" style="stop-color:#D3DAED"/>
	<stop  offset="1" style="stop-color:#99A7D8"/>
</linearGradient>
<path class="st82" d="M367.6,624.8v9.1l22.5,12.9v-9.1L367.6,624.8z"/>
<linearGradient id="SVGID_25_" gradientUnits="userSpaceOnUse" x1="394.873" y1="703.7999" x2="407.716" y2="703.7999" gradientTransform="matrix(1 0 0 1 0 -68)">
	<stop  offset="0.1499" style="stop-color:#FF9800"/>
	<stop  offset="1" style="stop-color:#FFC107"/>
</linearGradient>
<path class="st83" d="M394.9,638.6l12.8-7.4v1.8l-12.8,7.4V638.6z"/>
<radialGradient id="SVGID_26_" cx="311.8" cy="7985.9834" r="39.2593" gradientTransform="matrix(1 0 0 0.5172 0 -3794.2505)" gradientUnits="userSpaceOnUse">
	<stop  offset="0.1521" style="stop-color:#9A9EC3"/>
	<stop  offset="0.1983" style="stop-color:#A2A6C8"/>
	<stop  offset="0.4425" style="stop-color:#CACCE0"/>
	<stop  offset="0.6659" style="stop-color:#E7E8F1"/>
	<stop  offset="0.859" style="stop-color:#F9F9FB"/>
	<stop  offset="1" style="stop-color:#FFFFFF"/>
</radialGradient>
<path class="st84" d="M284.3,320.2c15.1-8.7,39.9-8.7,55,0s15.1,23,0,31.8c-15.1,8.7-39.9,8.7-55,0
	C269.2,343.2,269.2,328.9,284.3,320.2z"/>
<path class="st42" d="M347.7,300.2c0-0.9-1.2-1.6-2.8-1.6H339c-1,0-2.6,1-2.9,0.7c-0.4-0.5-0.3-1.1,0.4-1.5l4.2-2.4
	c1.1-0.6-5.8-0.3-6.9-1l0.1-5.2c-1.1-0.6-2.8-0.6-3.9,0l-4.2,2.4c-0.7,0.4-1.7,0.5-2.5,0.3c-0.6-0.1-1.3-0.3-1.8-0.4
	c-0.9-0.2-1.5-0.7-1.5-1.2v-3.4c0-0.9-1.2-1.6-2.8-1.6h-9.7c-1.5,0-2.8,0.7-2.8,1.6v3.4c0,0.6-0.6,1-1.6,1.2
	c-0.6,0.1-1.2,0.3-1.7,0.4c-0.9,0.2-1.9,0.2-2.6-0.2l-4.2-2.4c-1.1-0.6-2.8-0.6-3.9,0l-0.5,5.7c-1.1,0.6-7.4-0.1-6.3,0.5l4.2,2.4
	c0.7,0.4,0.9,1,0.5,1.5c-0.3,0.3-1.9-0.7-2.9-0.7h-6c-1.5,0-2.8,0.7-2.8,1.6v8.1c0,0.9,1.2,1.6,2.8,1.6h3.5l-0.1,6.7v0.3
	c0.1,0.4,0.3,0.7,0.8,1l6.8,3.9c0.7,0.4,1.6,0.5,2.4,0.4c0.5-0.1,1-0.2,1.4-0.4l4.2-2.4c0.7-0.4,1.7-0.5,2.5-0.3
	c0.6,0.1,1.3,0.3,1.8,0.4c0.9,0.2,1.5,0.7,1.5,1.2v3.4c0,0.9,1.2,1.6,2.8,1.6h9.7c1.5,0,2.8-0.7,2.8-1.6v-3.4c0-0.6,0.6-1.1,1.5-1.3
	c0.6-0.1,1.1-0.2,1.6-0.4c0.9-0.2,1.9-0.1,2.6,0.2l4.2,2.4c0.4,0.2,0.9,0.4,1.4,0.4h0.1c0.9,0.1,1.8,0,2.4-0.4l6.8-3.9
	c0.4-0.3,0.7-0.6,0.8-0.9v-0.2c0,0,0,0,0-0.1l-0.1-6.9h3.4c1.5,0,2.8-0.7,2.8-1.6L347.7,300.2z M325.8,307
	c-1.6,4.9-10.5,7.7-18.4,5.9c-6-1.3-9.7-5.1-8.5-8.8c1.6-4.9,10.5-7.7,18.4-5.9C323.3,299.5,327,303.3,325.8,307z"/>
<path class="st42" d="M341.6,290.9v-4.4h-6.3l-1.4-0.8c-1.1-0.6-2.8-0.6-3.9,0l-1.4,0.8H320v-3.2c0-0.9-1.2-1.6-2.8-1.6h-9.7
	c-1.5,0-2.8,0.7-2.8,1.6v3.2H296l-1.3-0.8c-1.1-0.6-2.8-0.6-3.9,0l-1.3,0.8h-6.3v4.3c0,0.4,0.2,0.9,0.8,1.2l4.2,2.4l48.4-0.1
	l4.2-2.4C341.2,291.7,341.5,291.3,341.6,290.9L341.6,290.9z"/>
<path class="st48" d="M337.3,302.2h7.6c1.5,0,2.8-0.7,2.8-1.6V295c0-0.9-1.2-1.6-2.8-1.6H339c-1,0-1.8-0.4-2.2-0.9
	c-0.2-0.3-0.4-0.6-0.7-0.9c-0.4-0.5-0.3-1.1,0.4-1.5l4.2-2.4c1.1-0.6,1.1-1.6,0-2.3l-6.8-3.9c-1.1-0.6-2.8-0.6-3.9,0l-4.2,2.4
	c-0.7,0.4-1.7,0.5-2.5,0.3c-0.6-0.1-1.3-0.3-1.8-0.4c-0.9-0.2-1.5-0.7-1.5-1.2v-3.4c0-0.9-1.2-1.6-2.8-1.6h-9.7
	c-1.5,0-2.8,0.7-2.8,1.6v3.4c0,0.6-0.6,1-1.6,1.2c-0.6,0.1-1.2,0.3-1.7,0.4c-0.9,0.2-1.9,0.2-2.6-0.2l-4.2-2.4
	c-1.1-0.6-2.8-0.6-3.9,0l-6.8,3.9c-1.1,0.6-1.1,1.6,0,2.3l4.2,2.4c0.7,0.4,0.9,1,0.5,1.5c-0.3,0.3-0.5,0.7-0.7,1
	c-0.3,0.5-1.2,0.8-2.1,0.8h-6c-1.5,0-2.8,0.7-2.8,1.6v5.6c0,0.9,1.2,1.6,2.8,1.6h5.9c1,0,1.8,0.4,2.2,0.9c0.2,0.3,0.4,0.6,0.7,0.9
	c0.4,0.5,0.3,1.1-0.4,1.5L284,308c-1.1,0.6-1.1,1.6,0,2.3l6.8,3.9c1.1,0.6,2.8,0.6,3.9,0l4.2-2.4c0.7-0.4,1.7-0.5,2.5-0.3
	c0.6,0.1,1.3,0.3,1.8,0.4c0.9,0.2,1.5,0.7,1.5,1.2v3.4c0,0.9,1.2,1.6,2.8,1.6h9.7c1.5,0,2.8-0.7,2.8-1.6v-3.4c0-0.6,0.6-1,1.5-1.2
	c0.6-0.1,1.1-0.3,1.6-0.4c0.9-0.2,1.9-0.1,2.6,0.2l4.2,2.4c1.1,0.6,2.8,0.6,3.9,0l6.8-3.9c1.1-0.6,1.1-1.6,0-2.3l-4.2-2.4
	c-0.7-0.4-0.9-1-0.5-1.5C336.7,303.3,337.3,302.3,337.3,302.2L337.3,302.2z M298.9,296.4c1.6-4.9,10.5-7.7,18.4-5.9
	c6,1.3,9.7,5.1,8.5,8.8c-1.6,4.9-10.5,7.7-18.4,5.9C301.4,303.9,297.7,300.1,298.9,296.4z"/>
<radialGradient id="SVGID_27_" cx="532.6" cy="8085.54" r="43.8574" gradientTransform="matrix(1 0 0 0.5172 0 -3794.2505)" gradientUnits="userSpaceOnUse">
	<stop  offset="9.130000e-02" style="stop-color:#48486A"/>
	<stop  offset="0.1179" style="stop-color:#505070"/>
	<stop  offset="0.3508" style="stop-color:#8D8DA3"/>
	<stop  offset="0.5638" style="stop-color:#BEBECA"/>
	<stop  offset="0.7497" style="stop-color:#E2E2E7"/>
	<stop  offset="0.9014" style="stop-color:#F7F7F9"/>
	<stop  offset="1" style="stop-color:#FFFFFF"/>
</radialGradient>
<path class="st85" d="M501.9,369.9c16.9-9.8,44.5-9.8,61.4,0s16.9,25.7,0,35.5s-44.5,9.8-61.4,0S485,379.6,501.9,369.9z"/>
<linearGradient id="SVGID_28_" gradientUnits="userSpaceOnUse" x1="-103.7654" y1="415.0643" x2="-49.7503" y2="415.0643" gradientTransform="matrix(1 0 0 1 610.7344 -68)">
	<stop  offset="0" style="stop-color:#FF9800"/>
	<stop  offset="1" style="stop-color:#FFC107"/>
</linearGradient>
<path class="st86" d="M508.2,314.6c4.9-5.4,12.9-6.8,19.3-3.2l27.2,15.3c3.5,2,6.4,6.9,6.4,10.9v35.9c0,6.5-5.5,11.6-11.9,11.2
	l-1.2-0.1c-1-0.1-1.9-0.3-2.7-0.8l-31.8-18c-3.5-2-6.4-6.9-6.4-10.9v-37.3C507,316.6,507.4,315.5,508.2,314.6z"/>
<path class="st87" d="M508.2,314.6c4.9-5.4,12.9-6.8,19.3-3.2l27.2,15.3c3.5,2,6.4,6.9,6.4,10.9v35.9c0,6.5-5.5,11.6-11.9,11.2
	l-1.2-0.1c-1-0.1-1.9-0.3-2.7-0.8l-31.8-18c-3.5-2-6.4-6.9-6.4-10.9v-37.3C507,316.6,507.4,315.5,508.2,314.6z"/>
<linearGradient id="SVGID_29_" gradientUnits="userSpaceOnUse" x1="-103.7344" y1="417.6" x2="-59.9434" y2="417.6" gradientTransform="matrix(1 0 0 1 610.7344 -68)">
	<stop  offset="0" style="stop-color:#FF9800"/>
	<stop  offset="1" style="stop-color:#FFC107"/>
</linearGradient>
<path class="st88" d="M507,319.5c0-4,2.9-5.7,6.4-3.7l31.1,17.6c3.5,2,6.4,6.9,6.4,10.9v35.4c0,4-2.9,5.7-6.4,3.7l-31.1-17.6
	c-3.5-2-6.4-6.9-6.4-10.9L507,319.5z"/>
<path class="st42" d="M528.9,336.4c-3.7-2.1-6.6-0.4-6.6,3.7c0,4.2,3,9.4,6.6,11.7c3.7,2.3,6.6,0.6,6.6-3.7S532.5,338.6,528.9,336.4
	z"/>
<path class="st42" d="M548.5,328.7v-16.1c0-15.6-3.4-25.5-10.2-29.4c-3.5-2-7.4-2.1-10.6-0.3c-2.6,1.5-7,5.7-7,16.7v15.8h0.1
	c0,0.4,0.3,0.8,0.8,1.1c1.1,0.6,2.9,0.6,4,0c0.5-0.3,0.8-0.7,0.8-1.1h0.1v-15.8c0-5.8,1.5-10.2,4-11.6c1.7-1,3.5-0.4,4.7,0.3
	c4.7,2.7,7.3,11.3,7.3,24.3v16.1c0,0.5,0.3,0.9,0.8,1.2c1.1,0.7,3,0.7,4.1,0C548.2,329.6,548.5,329.1,548.5,328.7L548.5,328.7z"/>
<path class="st42" d="M524.9,340.5v18.6l8,4.6v-18.5L524.9,340.5z"/>
<circle class="st42" cx="294.9" cy="334.6" r="0.5"/>
<circle class="st42" cx="314.8" cy="337.7" r="0.7"/>
<circle class="st42" cx="343.2" cy="327.6" r="0.8"/>
<circle class="st42" cx="353" cy="286.9" r="0.8"/>
<circle class="st42" cx="308.8" cy="253.7" r="0.5"/>
<circle class="st42" cx="317" cy="233.3" r="0.6"/>
<circle class="st42" cx="271.3" cy="215.7" r="0.7"/>
<circle class="st42" cx="307" cy="205.6" r="0.7"/>
<circle class="st42" cx="322.9" cy="187.8" r="0.8"/>
<circle class="st42" cx="268.6" cy="279.3" r="0.7"/>
<circle class="st42" cx="261.2" cy="265.9" r="0.7"/>
<circle class="st42" cx="273.8" cy="337" r="0.6"/>
<circle class="st42" cx="359" cy="303.6" r="0.7"/>
<circle class="st42" cx="294.7" cy="262.4" r="0.5"/>
<circle class="st42" cx="284.1" cy="238.3" r="0.7"/>
<circle class="st42" cx="350.6" cy="237.6" r="0.6"/>
<circle class="st42" cx="354.5" cy="219.4" r="0.7"/>
<circle class="st42" cx="460.1" cy="208.8" r="0.8"/>
<circle class="st42" cx="466.3" cy="151.1" r="0.4"/>
<circle class="st42" cx="431.2" cy="165.8" r="0.5"/>
<circle class="st42" cx="390.5" cy="151.9" r="0.6"/>
<circle class="st42" cx="372.8" cy="176.8" r="0.6"/>
<circle class="st42" cx="397" cy="211.6" r="0.5"/>
<circle class="st42" cx="464.2" cy="169.4" r="0.5"/>
<path class="st42" d="M422.5,223.6c0,0.2-0.2,0.4-0.4,0.4s-0.4-0.2-0.4-0.4s0.2-0.4,0.4-0.4S422.5,223.4,422.5,223.6z"/>
<circle class="st42" cx="573.2" cy="382.8" r="0.5"/>
<circle class="st42" cx="565" cy="341.8" r="0.8"/>
<circle class="st42" cx="564.4" cy="299" r="0.7"/>
<path class="st42" d="M501.1,314.1c0,0.4-0.3,0.7-0.7,0.7s-0.7-0.3-0.7-0.7s0.3-0.7,0.7-0.7C500.7,313.4,501.1,313.7,501.1,314.1z"
	/>
<circle class="st42" cx="514.1" cy="287.4" r="1"/>
<circle class="st42" cx="487.8" cy="346" r="0.7"/>
<circle class="st42" cx="502.6" cy="370.5" r="0.5"/>
<circle class="st42" cx="501" cy="390.6" r="0.5"/>
<path class="st42" d="M524.8,402.4c0,0.3-0.2,0.5-0.5,0.5s-0.5-0.2-0.5-0.5s0.2-0.5,0.5-0.5C524.5,401.9,524.8,402.1,524.8,402.4z"
	/>
<circle class="st42" cx="561.4" cy="313.9" r="0.8"/>
<circle class="st42" cx="571.6" cy="276.8" r="0.7"/>
<circle class="st42" cx="541.2" cy="264.3" r="0.6"/>
<circle class="st42" cx="557" cy="232.1" r="0.5"/>
<circle class="st42" cx="533.2" cy="221.3" r="0.6"/>
<path class="st42" d="M582.4,299.5c0,0.3-0.2,0.5-0.5,0.5s-0.5-0.2-0.5-0.5s0.2-0.5,0.5-0.5S582.4,299.2,582.4,299.5z"/>
<circle class="st42" cx="482.9" cy="321" r="0.7"/>
<path class="st42" d="M488.7,268.3c0,0.5-0.4,0.9-0.9,0.9s-0.9-0.4-0.9-0.9s0.4-0.9,0.9-0.9S488.7,267.8,488.7,268.3z"/>
<circle class="st42" cx="580.1" cy="350.2" r="0.7"/>
<path class="st42" d="M502.5,242c0,0.4-0.3,0.7-0.7,0.7s-0.7-0.3-0.7-0.7s0.3-0.7,0.7-0.7S502.5,241.6,502.5,242z"/>
<path class="st46" d="M649.5,206.7c2.6-1.5,4.7-0.3,4.7,2.7s-2.1,6.7-4.7,8.2s-4.7,0.3-4.7-2.7S647,208.2,649.5,206.7z"/>
<path class="st46" d="M640.6,213.5c0.5,0,1-0.4,1.1-0.9c0.4-1.5,0.9-2.9,1.6-4.4c0.7-1.4,1.6-2.7,2.5-3.9c1-1.2,2-2.1,3.1-2.8
	c1-0.7,2-1.1,3-1.2c0.8-0.1,1.6,0,2.2,0.3s1.2,0.9,1.6,1.6c0.3,0.6,1.1,0.8,1.7,0.5s0.8-1.1,0.5-1.7c-0.6-1.2-1.5-2.1-2.6-2.7
	s-2.4-0.7-3.7-0.6c-1.3,0.2-2.6,0.7-4,1.6c-1.3,0.8-2.5,2-3.7,3.3c-1.1,1.3-2,2.8-2.9,4.4c-0.8,1.6-1.4,3.2-1.8,4.9
	c-0.2,0.7,0.2,1.3,0.9,1.5C640.4,213.5,640.5,213.5,640.6,213.5L640.6,213.5z"/>
<path class="st46" d="M636.2,210.9c0.5,0,1-0.3,1.2-0.9c0.7-2.2,1.6-4.3,2.8-6.4s2.6-4,4.1-5.6c1.6-1.7,3.3-3.1,5-4
	c1.7-1,3.3-1.5,4.7-1.6c1.3-0.1,2.6,0.1,3.6,0.7s1.8,1.5,2.4,2.8c0.3,0.6,1,0.9,1.7,0.6c0.6-0.3,0.9-1,0.6-1.7
	c-0.8-1.7-1.9-3-3.4-3.9s-3.2-1.2-5-1s-3.8,0.8-5.8,2c-1.9,1.1-3.8,2.6-5.5,4.5c-1.7,1.8-3.2,3.8-4.5,6.1c-1.3,2.2-2.3,4.6-3,6.9
	c-0.2,0.7,0.2,1.4,0.8,1.6C636,210.9,636.1,210.9,636.2,210.9L636.2,210.9z"/>
<path class="st46" d="M631.7,209.4c0.5,0,1-0.3,1.2-0.9c0.9-3,2.2-5.9,3.9-8.8c1.6-2.9,3.6-5.5,5.7-7.7c2.2-2.3,4.5-4.2,6.9-5.6
	c2.3-1.3,4.5-2.1,6.6-2.3c1.9-0.2,3.6,0.2,5.1,1c1.5,0.9,2.6,2.2,3.4,3.9c0.3,0.6,1,0.9,1.7,0.6c0.6-0.3,0.9-1,0.6-1.7
	c-1-2.2-2.5-3.9-4.5-5c-1.9-1.1-4.1-1.6-6.6-1.4s-5,1.1-7.7,2.6c-2.6,1.5-5.1,3.5-7.4,6c-2.3,2.4-4.3,5.2-6,8.2s-3.1,6.2-4.1,9.3
	c-0.2,0.7,0.2,1.4,0.8,1.6C631.5,209.4,631.6,209.4,631.7,209.4L631.7,209.4z"/>
<path class="st89" d="M656.3,577.8l-54.6-31.5l-53.2,31.5l53.2,31.5L656.3,577.8z"/>
<path class="st53" d="M656.3,577.8v52.3l-54.6,29.8v-50.6L656.3,577.8z"/>
<path class="st90" d="M548.5,577.8v50.6l53.2,31.5v-50.6L548.5,577.8z"/>
<path class="st48" d="M586.3,606.4v3.6l10.2,5.9v-3.6L586.3,606.4z"/>
<linearGradient id="SVGID_30_" gradientUnits="userSpaceOnUse" x1="573.1" y1="671.5" x2="583.22" y2="671.5" gradientTransform="matrix(1 0 0 1 0 -68)">
	<stop  offset="0.1499" style="stop-color:#FF9800"/>
	<stop  offset="1" style="stop-color:#FFC107"/>
</linearGradient>
<path class="st91" d="M573.1,598.7v3.7l10.1,5.9v-3.7L573.1,598.7z"/>
<linearGradient id="SVGID_31_" gradientUnits="userSpaceOnUse" x1="1273.0398" y1="573.1296" x2="1293.2288" y2="573.1296" gradientTransform="matrix(-1 0 0 1 1876.8398 -68)">
	<stop  offset="0" style="stop-color:#FF9800"/>
	<stop  offset="1" style="stop-color:#FFC107"/>
</linearGradient>
<path class="st92" d="M601.1,561.1c1.5,0,2.7-1.2,2.7-2.7v-88.6c0-6.9-3.7-13.4-9.8-16.8l-6.3-3.5c-1.3-0.7-3-0.3-3.7,1
	s-0.3,3,1,3.7l6.3,3.5c4.3,2.5,7,7.1,7,12.1v88.6C598.4,559.9,599.6,561.1,601.1,561.1z"/>
<linearGradient id="SVGID_32_" gradientUnits="userSpaceOnUse" x1="1293.2397" y1="585.3074" x2="1313.428" y2="585.3074" gradientTransform="matrix(-1 0 0 1 1876.8398 -68)">
	<stop  offset="0" style="stop-color:#FF9800"/>
	<stop  offset="1" style="stop-color:#FFC107"/>
</linearGradient>
<path class="st93" d="M580.9,573.3c1.5,0,2.7-1.2,2.7-2.7V482c0-6.9-3.7-13.4-9.8-16.8l-6.4-3.5c-1.3-0.8-3-0.3-3.7,1s-0.3,3,1,3.7
	l6.3,3.5c4.3,2.5,7,7.1,7,12.1v88.6C578.2,572.1,579.4,573.3,580.9,573.3z"/>
<linearGradient id="SVGID_33_" gradientUnits="userSpaceOnUse" x1="1274.8398" y1="573.15" x2="1291.3987" y2="573.15" gradientTransform="matrix(-1 0 0 1 1876.8398 -68)">
	<stop  offset="0" style="stop-color:#FF9800"/>
	<stop  offset="1" style="stop-color:#FFC107"/>
</linearGradient>
<path class="st94" d="M601.1,559.3c0.5,0,0.9-0.4,0.9-0.9v-88.6c0-6.3-3.4-12.1-8.9-15.2l-6.4-3.5c-0.4-0.2-1-0.1-1.2,0.3
	s-0.1,1,0.3,1.2l6.3,3.5c4.9,2.8,7.9,8,7.9,13.7v88.6C600.2,558.9,600.6,559.3,601.1,559.3L601.1,559.3z"/>
<linearGradient id="SVGID_34_" gradientUnits="userSpaceOnUse" x1="1295.0398" y1="585.35" x2="1311.5994" y2="585.35" gradientTransform="matrix(-1 0 0 1 1876.8398 -68)">
	<stop  offset="0" style="stop-color:#FF9800"/>
	<stop  offset="1" style="stop-color:#FFC107"/>
</linearGradient>
<path class="st95" d="M580.9,571.5c0.5,0,0.9-0.4,0.9-0.9V482c0-6.3-3.4-12.1-8.9-15.2l-6.3-3.5c-0.4-0.2-1-0.1-1.2,0.3
	s-0.1,1,0.3,1.2l6.3,3.5c4.9,2.8,7.9,8,7.9,13.7v88.6C580,571.1,580.4,571.5,580.9,571.5z"/>
<path class="st96" d="M615.6,569.8l17.4,9.9c0.4,0.2,0.4,0.8,0,1l-27,15.6c-0.7,0.4-1.5,0.4-2.2,0l-17.4-9.9c-0.4-0.2-0.4-0.8,0-1
	l27-15.6C614,569.4,614.9,569.4,615.6,569.8z"/>
<path class="st97" d="M615.5,569.8l17.3,9.9c0.4,0.2,0.4,0.8,0,1l-26.9,15.5c-0.7,0.4-1.5,0.4-2.2,0l-17.3-9.9c-0.4-0.2-0.4-0.8,0-1
	l26.9-15.5C614,569.4,614.8,569.4,615.5,569.8z"/>
<path class="st98" d="M615.5,569.9l17.2,9.8c0.4,0.2,0.4,0.8,0,1l-26.8,15.5c-0.7,0.4-1.5,0.4-2.2,0l-17.2-9.8c-0.4-0.2-0.4-0.8,0-1
	l26.8-15.5C614,569.5,614.8,569.5,615.5,569.9z"/>
<path class="st99" d="M615.5,569.9l17.1,9.8c0.4,0.2,0.4,0.7,0,1l-26.7,15.4c-0.7,0.4-1.5,0.4-2.2,0l-17.1-9.8c-0.4-0.2-0.4-0.8,0-1
	l26.7-15.4C613.9,569.5,614.8,569.5,615.5,569.9z"/>
<path class="st100" d="M615.4,569.9l17.1,9.8c0.4,0.2,0.4,0.7,0,1L605.9,596c-0.7,0.4-1.5,0.4-2.2,0l-17.1-9.8c-0.4-0.2-0.4-0.7,0-1
	l26.6-15.3C613.9,569.6,614.7,569.6,615.4,569.9z"/>
<path class="st101" d="M615.4,570l17,9.7c0.4,0.2,0.4,0.7,0,1L605.9,596c-0.7,0.4-1.5,0.4-2.2,0l-17-9.7c-0.4-0.2-0.4-0.7,0-1
	l26.5-15.3C613.9,569.6,614.7,569.6,615.4,570z"/>
<path class="st102" d="M615.3,570l16.9,9.7c0.4,0.2,0.4,0.7,0,1l-26.4,15.2c-0.7,0.4-1.5,0.4-2.2,0l-16.9-9.7c-0.4-0.2-0.4-0.7,0-1
	l26.4-15.2C613.8,569.6,614.7,569.6,615.3,570z"/>
<path class="st103" d="M615.3,570.1l16.9,9.6c0.4,0.2,0.4,0.7,0,0.9l-26.3,15.2c-0.7,0.4-1.5,0.4-2.2,0l-16.9-9.6
	c-0.4-0.2-0.4-0.7,0-0.9l26.3-15.2C613.8,569.7,614.6,569.7,615.3,570.1z"/>
<path class="st104" d="M615.3,570.1l16.8,9.6c0.4,0.2,0.4,0.7,0,0.9L606,595.7c-0.7,0.4-1.5,0.4-2.2,0l-16.8-9.6
	c-0.4-0.2-0.4-0.7,0-0.9l26.1-15.1C613.8,569.7,614.6,569.7,615.3,570.1z"/>
<path class="st105" d="M615.2,570.1l16.7,9.6c0.4,0.2,0.4,0.7,0,0.9l-26,15c-0.7,0.4-1.5,0.4-2.2,0L587,586c-0.4-0.2-0.4-0.7,0-0.9
	l26-15C613.7,569.8,614.5,569.8,615.2,570.1z"/>
<path class="st106" d="M615.2,570.2l16.7,9.5c0.4,0.2,0.4,0.7,0,0.9l-25.9,15c-0.7,0.4-1.5,0.4-2.1,0l-16.7-9.5
	c-0.4-0.2-0.4-0.7,0-0.9l25.9-15C613.7,569.8,614.5,569.8,615.2,570.2z"/>
<path class="st107" d="M615.1,570.2l16.6,9.5c0.4,0.2,0.4,0.7,0,0.9l-25.8,14.9c-0.7,0.4-1.5,0.4-2.1,0l-16.6-9.5
	c-0.4-0.2-0.4-0.7,0-0.9l25.8-14.9C613.7,569.8,614.5,569.8,615.1,570.2z"/>
<path class="st108" d="M615.1,570.2l16.5,9.4c0.4,0.2,0.4,0.7,0,0.9l-25.7,14.8c-0.7,0.4-1.5,0.4-2.1,0l-16.5-9.4
	c-0.4-0.2-0.4-0.7,0-0.9l25.7-14.8C613.6,569.9,614.4,569.9,615.1,570.2z"/>
<path class="st109" d="M615.1,570.3l16.4,9.4c0.4,0.2,0.4,0.7,0,0.9l-25.6,14.8c-0.7,0.4-1.5,0.4-2.1,0l-16.4-9.4
	c-0.4-0.2-0.4-0.7,0-0.9l25.6-14.8C613.6,569.9,614.4,569.9,615.1,570.3z"/>
<path class="st110" d="M615,570.3l16.4,9.4c0.4,0.2,0.4,0.7,0,0.9l-25.5,14.7c-0.6,0.4-1.5,0.4-2.1,0l-16.4-9.4
	c-0.4-0.2-0.4-0.7,0-0.9l25.5-14.7C613.6,570,614.4,570,615,570.3z"/>
<path class="st111" d="M615,570.4l16.3,9.3c0.4,0.2,0.4,0.7,0,0.9l-25.4,14.7c-0.6,0.4-1.4,0.4-2.1,0l-16.3-9.3
	c-0.4-0.2-0.4-0.7,0-0.9l25.4-14.7C613.5,570,614.3,570,615,570.4z"/>
<path class="st112" d="M614.9,570.4l16.2,9.3c0.4,0.2,0.4,0.7,0,0.9l-25.3,14.6c-0.6,0.4-1.4,0.4-2.1,0l-16.2-9.3
	c-0.4-0.2-0.4-0.7,0-0.9l25.3-14.6C613.5,570,614.3,570,614.9,570.4z"/>
<path class="st113" d="M614.9,570.4l16.2,9.2c0.4,0.2,0.4,0.7,0,0.9L605.9,595c-0.6,0.4-1.4,0.4-2.1,0l-16.2-9.2
	c-0.3-0.2-0.3-0.7,0-0.9l25.2-14.5C613.5,570.1,614.2,570.1,614.9,570.4z"/>
<path class="st114" d="M614.9,570.5l16.1,9.2c0.3,0.2,0.3,0.7,0,0.9l-25.1,14.5c-0.6,0.4-1.4,0.4-2.1,0l-16.1-9.2
	c-0.4-0.2-0.4-0.7,0-0.9l25.1-14.5C613.4,570.1,614.2,570.1,614.9,570.5z"/>
<path class="st115" d="M614.8,570.5l16,9.2c0.3,0.2,0.3,0.7,0,0.9l-25,14.4c-0.6,0.4-1.4,0.4-2.1,0l-16-9.2c-0.3-0.2-0.3-0.7,0-0.9
	l25-14.4C613.4,570.1,614.2,570.1,614.8,570.5z"/>
<path class="st116" d="M614.8,570.5l16,9.1c0.3,0.2,0.3,0.7,0,0.9L606,594.8c-0.6,0.4-1.4,0.4-2.1,0l-16-9.1c-0.3-0.2-0.3-0.7,0-0.9
	l24.8-14.3C613.4,570.2,614.1,570.2,614.8,570.5z"/>
<path class="st117" d="M614.7,570.6l15.9,9.1c0.3,0.2,0.3,0.7,0,0.9l-24.7,14.3c-0.6,0.4-1.4,0.4-2,0l-15.9-9.1
	c-0.3-0.2-0.3-0.7,0-0.9l24.7-14.3C613.3,570.2,614.1,570.2,614.7,570.6z"/>
<path class="st118" d="M614.7,570.6l15.8,9c0.3,0.2,0.3,0.7,0,0.9l-24.6,14.2c-0.6,0.4-1.4,0.4-2,0l-15.8-9c-0.3-0.2-0.3-0.7,0-0.9
	l24.6-14.2C613.3,570.3,614.1,570.3,614.7,570.6z"/>
<path class="st119" d="M614.7,570.7l15.7,9c0.3,0.2,0.3,0.7,0,0.9l-24.5,14.2c-0.6,0.4-1.4,0.4-2,0l-15.7-9c-0.3-0.2-0.3-0.7,0-0.9
	l24.5-14.2C613.3,570.3,614,570.3,614.7,570.7z"/>
<path class="st120" d="M614.6,570.7l15.7,9c0.3,0.2,0.3,0.7,0,0.9l-24.4,14.1c-0.6,0.4-1.4,0.4-2,0l-15.7-9c-0.3-0.2-0.3-0.7,0-0.9
	l24.4-14.1C613.2,570.3,614,570.3,614.6,570.7z"/>
<path class="st121" d="M614.6,570.7l15.6,8.9c0.3,0.2,0.3,0.7,0,0.9l-24.3,14c-0.6,0.4-1.4,0.4-2,0l-15.6-8.9
	c-0.3-0.2-0.3-0.7,0-0.9l24.3-14C613.2,570.4,614,570.4,614.6,570.7z"/>
<path class="st122" d="M614.5,570.8l15.5,8.9c0.3,0.2,0.3,0.7,0,0.9l-24.2,14c-0.6,0.4-1.4,0.4-2,0l-15.5-8.9
	c-0.3-0.2-0.3-0.7,0-0.9l24.2-14C613.2,570.4,613.9,570.4,614.5,570.8z"/>
<path class="st123" d="M614.5,570.8l15.5,8.8c0.3,0.2,0.3,0.7,0,0.9l-24.1,13.9c-0.6,0.4-1.4,0.4-2,0l-15.5-8.8
	c-0.3-0.2-0.3-0.7,0-0.9l24.1-13.9C613.1,570.5,613.9,570.5,614.5,570.8z"/>
<path class="st124" d="M614.5,570.8l15.4,8.8c0.3,0.2,0.3,0.7,0,0.9l-24,13.8c-0.6,0.4-1.4,0.4-2,0l-15.4-8.8
	c-0.3-0.2-0.3-0.7,0-0.9l24-13.8C613.1,570.5,613.8,570.5,614.5,570.8z"/>
<path class="st125" d="M614.4,570.9l15.3,8.8c0.3,0.2,0.3,0.7,0,0.9l-23.9,13.8c-0.6,0.4-1.4,0.4-2,0l-15.3-8.8
	c-0.3-0.2-0.3-0.7,0-0.9l23.9-13.8C613.1,570.5,613.8,570.5,614.4,570.9z"/>
<path class="st126" d="M614.4,570.9l15.3,8.7c0.3,0.2,0.3,0.7,0,0.9l-23.8,13.7c-0.6,0.4-1.4,0.4-2,0l-15.3-8.7
	c-0.3-0.2-0.3-0.7,0-0.9l23.8-13.7C613,570.6,613.8,570.6,614.4,570.9z"/>
<path class="st127" d="M614.3,571l15.2,8.7c0.3,0.2,0.3,0.7,0,0.9l-23.6,13.7c-0.6,0.3-1.3,0.3-2,0l-15.2-8.7
	c-0.3-0.2-0.3-0.7,0-0.9l23.6-13.7C613,570.6,613.7,570.6,614.3,571z"/>
<path class="st128" d="M614.3,571l15.1,8.6c0.3,0.2,0.3,0.7,0,0.8L605.9,594c-0.6,0.3-1.3,0.3-1.9,0l-15.1-8.6
	c-0.3-0.2-0.3-0.7,0-0.9l23.5-13.6C613,570.7,613.7,570.7,614.3,571L614.3,571z"/>
<path class="st129" d="M614.3,571l15,8.6c0.3,0.2,0.3,0.7,0,0.8L605.9,594c-0.6,0.3-1.3,0.3-1.9,0l-15-8.6c-0.3-0.2-0.3-0.7,0-0.8
	l23.4-13.5C612.9,570.7,613.7,570.7,614.3,571z"/>
<path class="st130" d="M614.2,571.1l15,8.6c0.3,0.2,0.3,0.7,0,0.8L605.9,594c-0.6,0.3-1.3,0.3-1.9,0l-15-8.6c-0.3-0.2-0.3-0.7,0-0.8
	l23.3-13.5C612.9,570.7,613.6,570.7,614.2,571.1z"/>
<path class="st131" d="M614.2,571.1l14.9,8.5c0.3,0.2,0.3,0.7,0,0.8l-23.2,13.4c-0.6,0.3-1.3,0.3-1.9,0l-14.9-8.5
	c-0.3-0.2-0.3-0.7,0-0.8l23.2-13.4C612.9,570.8,613.6,570.8,614.2,571.1z"/>
<path class="st132" d="M614.1,571.2l14.8,8.5c0.3,0.2,0.3,0.7,0,0.8l-23.1,13.3c-0.6,0.3-1.3,0.3-1.9,0l-14.8-8.5
	c-0.3-0.2-0.3-0.7,0-0.8l23.1-13.3C612.8,570.8,613.5,570.8,614.1,571.2z"/>
<path class="st133" d="M614.1,571.2l14.8,8.4c0.3,0.2,0.3,0.6,0,0.8l-23,13.3c-0.6,0.3-1.3,0.3-1.9,0l-14.8-8.4
	c-0.3-0.2-0.3-0.6,0-0.8l23-13.3C612.8,570.9,613.5,570.8,614.1,571.2z"/>
<path class="st134" d="M614.1,571.2l14.7,8.4c0.3,0.2,0.3,0.6,0,0.8l-22.9,13.2c-0.6,0.3-1.3,0.3-1.9,0l-14.7-8.4
	c-0.3-0.2-0.3-0.6,0-0.8l22.9-13.2C612.8,570.9,613.5,570.9,614.1,571.2z"/>
<path class="st135" d="M614,571.3l14.6,8.4c0.3,0.2,0.3,0.6,0,0.8l-22.8,13.2c-0.6,0.3-1.3,0.3-1.9,0l-14.6-8.4
	c-0.3-0.2-0.3-0.6,0-0.8l22.8-13.1C612.7,570.9,613.4,570.9,614,571.3L614,571.3z"/>
<path class="st136" d="M614,571.3l14.6,8.3c0.3,0.2,0.3,0.6,0,0.8l-22.7,13.1c-0.6,0.3-1.3,0.3-1.9,0l-14.6-8.3
	c-0.3-0.2-0.3-0.6,0-0.8l22.7-13.1C612.7,571,613.4,571,614,571.3z"/>
<path class="st42" d="M613.9,571.3l14.5,8.3c0.3,0.2,0.3,0.6,0,0.8l-22.6,13c-0.6,0.3-1.3,0.3-1.9,0l-14.5-8.3
	c-0.3-0.2-0.3-0.6,0-0.8l22.6-13C612.7,571,613.4,571,613.9,571.3z"/>
<linearGradient id="SVGID_35_" gradientUnits="userSpaceOnUse" x1="1924.0098" y1="634.1432" x2="1950.7717" y2="634.1432" gradientTransform="matrix(-1 0 0 1 2537.7617 -68)">
	<stop  offset="0" style="stop-color:#EBE9EC"/>
	<stop  offset="0.9962" style="stop-color:#99A7D8"/>
</linearGradient>
<path class="st137" d="M587.6,563.2l25.4-14.7c0.3-0.2,0.8,0,0.8,0.4v19.2c0,0.4-0.2,0.8-0.6,1l-25.4,14.7c-0.3,0.2-0.8-0.1-0.8-0.4
	v-19.2C587,563.7,587.2,563.4,587.6,563.2z"/>
<path class="st42" d="M587.9,563.4l25.4-14.7c0.3-0.2,0.8,0,0.8,0.4v19.2c0,0.4-0.2,0.8-0.6,1L588.1,584c-0.3,0.2-0.8-0.1-0.8-0.4
	v-19.2C587.3,564,587.5,563.6,587.9,563.4z"/>
<path class="st90" d="M588.8,564.6l24-13.9v17.5l-24,13.9V564.6z"/>
<linearGradient id="SVGID_36_" gradientUnits="userSpaceOnUse" x1="1906.3507" y1="650.45" x2="1950.0393" y2="650.45" gradientTransform="matrix(-1 0 0 1 2537.7617 -68)">
	<stop  offset="0" style="stop-color:#FFFFFF"/>
	<stop  offset="1" style="stop-color:#99A7D8"/>
</linearGradient>
<path class="st138" d="M615.1,570.2l16.3,8.6c0,0,0.1,1.3-0.3,1.5l-25,14.4c-0.6,0.4-1.4,0.4-2.1,0l-16-9.2
	c-0.7-0.4-0.3-1.5-0.3-1.5l25.2-13.8C613.7,569.8,614.5,569.8,615.1,570.2L615.1,570.2z"/>
<path class="st139" d="M615.1,569.2l16,9.2c0.3,0.2,0.4,0.7,0,0.9l-25,14.4c-0.6,0.4-1.4,0.4-2.1,0l-16-9.2c-0.3-0.2-0.4-0.7,0-0.9
	l25-14.4C613.7,568.9,614.5,568.9,615.1,569.2z"/>
<path class="st140" d="M616.5,581.1l4.2,2.4c0.1,0.1,0.1,0.2,0,0.2l-6.6,3.8c-0.2,0.1-0.4,0.1-0.5,0l-4.2-2.4
	c-0.1-0.1-0.1-0.2,0-0.2l6.6-3.8C616.2,581,616.4,581,616.5,581.1z"/>
<g>
	<path class="st45" d="M613.3,570.6l-1.4,0.8c-0.1,0-0.1,0.1,0,0.1l0.7,0.4h0.2l1.4-0.8c0.1,0,0.1-0.1,0-0.1l-0.7-0.4
		C613.5,570.6,613.4,570.6,613.3,570.6z"/>
	<path class="st45" d="M611.3,571.8l-1.4,0.8c-0.1,0-0.1,0.1,0,0.1l0.7,0.4h0.2l1.4-0.8c0.1,0,0.1-0.1,0-0.1l-0.7-0.4
		C611.4,571.8,611.4,571.8,611.3,571.8z"/>
	<path class="st45" d="M609.3,573l-1.4,0.8c-0.1,0-0.1,0.1,0,0.1l0.7,0.4h0.2l1.4-0.8c0.1,0,0.1-0.1,0-0.1l-0.7-0.4
		C609.4,572.9,609.3,572.9,609.3,573z"/>
	<path class="st45" d="M607.2,574.1l-1.4,0.8c-0.1,0-0.1,0.1,0,0.1l0.7,0.4h0.2l1.4-0.8c0.1,0,0.1-0.1,0-0.1l-0.7-0.4
		C607.3,574.1,607.3,574.1,607.2,574.1z"/>
	<path class="st45" d="M605.2,575.3l-1.4,0.8c-0.1,0-0.1,0.1,0,0.1l0.7,0.4h0.2l1.4-0.8c0.1,0,0.1-0.1,0-0.1l-0.7-0.4
		C605.3,575.2,605.2,575.2,605.2,575.3z"/>
	<path class="st45" d="M603.2,576.5l-1.4,0.8c-0.1,0-0.1,0.1,0,0.1l0.7,0.4h0.2l1.4-0.8c0.1,0,0.1-0.1,0-0.1l-0.7-0.4
		C603.4,576.4,603.3,576.4,603.2,576.5z"/>
	<path class="st45" d="M601.2,577.6l-1.4,0.8c-0.1,0-0.1,0.1,0,0.1l0.7,0.4h0.2l1.4-0.8c0.1,0,0.1-0.1,0-0.1l-0.7-0.4
		C601.3,577.6,601.2,577.6,601.2,577.6z"/>
	<path class="st45" d="M599.2,578.8l-1.4,0.8c-0.1,0-0.1,0.1,0,0.1l0.7,0.4h0.2l1.4-0.8c0.1,0,0.1-0.1,0-0.1l-0.7-0.4
		C599.3,578.8,599.2,578.8,599.2,578.8z"/>
	<path class="st45" d="M597.2,580l-1.4,0.8c-0.1,0-0.1,0.1,0,0.1l0.7,0.4h0.2l1.4-0.8c0.1,0,0.1-0.1,0-0.1l-0.7-0.4
		C597.3,579.9,597.3,579.9,597.2,580z"/>
	<path class="st45" d="M595.1,581.2l-1.4,0.8c-0.1,0-0.1,0.1,0,0.1l0.7,0.4h0.2l1.4-0.8c0.1,0,0.1-0.1,0-0.1l-0.7-0.4
		C595.2,581.1,595.2,581.1,595.1,581.2z"/>
	<path class="st45" d="M593.1,582.3l-1.4,0.8c-0.1,0-0.1,0.1,0,0.1l0.7,0.4h0.2l1.4-0.8c0.1,0,0.1-0.1,0-0.1l-0.7-0.4
		C593.2,582.3,593.1,582.3,593.1,582.3z"/>
	<path class="st45" d="M616.2,572.1l-0.9-0.5c-0.1-0.1-0.3-0.1-0.4,0l-0.9,0.5c-0.1,0.1-0.1,0.3,0,0.3l0.9,0.6
		c0.1,0.1,0.3,0.1,0.4,0l0.9-0.5C616.3,572.4,616.3,572.2,616.2,572.1L616.2,572.1z"/>
	<path class="st45" d="M614.1,573.3l-0.9-0.6c-0.1-0.1-0.3-0.1-0.4,0l-0.9,0.5c-0.1,0.1-0.1,0.3,0,0.3l0.9,0.6
		c0.1,0.1,0.3,0.1,0.4,0l0.9-0.5C614.2,573.6,614.2,573.4,614.1,573.3z"/>
	<path class="st45" d="M612,574.5l-0.9-0.5c-0.1-0.1-0.3-0.1-0.4,0l-0.9,0.5c-0.1,0.1-0.1,0.3,0,0.3l0.9,0.6c0.1,0.1,0.3,0.1,0.4,0
		l0.9-0.5C612.2,574.7,612.2,574.5,612,574.5L612,574.5z"/>
	<path class="st45" d="M609.9,575.6l-0.9-0.5c-0.1-0.1-0.3-0.1-0.4,0l-0.9,0.5c-0.1,0.1-0.1,0.3,0,0.3l0.9,0.6
		c0.1,0.1,0.3,0.1,0.4,0l0.9-0.5C610,575.9,610,575.7,609.9,575.6L609.9,575.6z"/>
	<path class="st45" d="M608,576.8l-0.9-0.5c-0.1-0.1-0.3-0.1-0.4,0l-0.9,0.5c-0.1,0.1-0.1,0.3,0,0.3l0.9,0.6c0.1,0.1,0.3,0.1,0.4,0
		l0.9-0.5C608.1,577,608.1,576.8,608,576.8L608,576.8z"/>
	<path class="st45" d="M606,578l-0.9-0.5c-0.1-0.1-0.3-0.1-0.4,0l-0.9,0.5c-0.1,0.1-0.1,0.3,0,0.3l0.9,0.6c0.1,0.1,0.3,0.1,0.4,0
		l0.9-0.5C606.1,578.2,606.2,578,606,578L606,578z"/>
	<path class="st45" d="M604,579.1l-0.9-0.5c-0.1-0.1-0.3-0.1-0.4,0l-0.9,0.5c-0.1,0.1-0.1,0.3,0,0.3l0.9,0.6c0.1,0.1,0.3,0.1,0.4,0
		l0.9-0.5C604.1,579.4,604.1,579.2,604,579.1L604,579.1z"/>
	<path class="st45" d="M601.9,580.2l-0.9-0.5c-0.1-0.1-0.3-0.1-0.4,0l-0.9,0.5c-0.1,0.1-0.1,0.3,0,0.3l0.9,0.6
		c0.1,0.1,0.3,0.1,0.4,0l0.9-0.5C602.1,580.5,602.1,580.3,601.9,580.2L601.9,580.2z"/>
	<path class="st45" d="M599.9,581.5L599,581c-0.1-0.1-0.3-0.1-0.4,0l-0.9,0.5c-0.1,0.1-0.1,0.3,0,0.3l0.9,0.6c0.1,0.1,0.3,0.1,0.4,0
		l0.9-0.5C600.1,581.7,600.1,581.5,599.9,581.5L599.9,581.5z"/>
	<path class="st45" d="M597.8,582.7l-0.9-0.5c-0.1-0.1-0.3-0.1-0.4,0l-0.9,0.5c-0.1,0.1-0.1,0.3,0,0.3l0.9,0.6
		c0.1,0.1,0.3,0.1,0.4,0l0.9-0.5C597.9,583,597.9,582.8,597.8,582.7L597.8,582.7z"/>
	<path class="st45" d="M595.8,583.8l-0.9-0.5c-0.1-0.1-0.3-0.1-0.4,0l-0.9,0.5c-0.1,0.1-0.1,0.3,0,0.3l0.9,0.6
		c0.1,0.1,0.3,0.1,0.4,0l0.9-0.5C595.9,584.1,595.9,583.9,595.8,583.8L595.8,583.8z"/>
	<path class="st45" d="M618.2,573.3l-0.9-0.5c-0.1-0.1-0.3-0.1-0.4,0l-0.9,0.5c-0.1,0.1-0.1,0.3,0,0.3l0.9,0.6
		c0.1,0.1,0.3,0.1,0.4,0l0.9-0.5C618.4,573.5,618.4,573.3,618.2,573.3L618.2,573.3z"/>
	<path class="st45" d="M616.1,574.5l-0.9-0.5c-0.1-0.1-0.3-0.1-0.4,0l-0.9,0.5c-0.1,0.1-0.1,0.3,0,0.3l0.9,0.6
		c0.1,0.1,0.3,0.1,0.4,0l0.9-0.5C616.3,574.7,616.3,574.5,616.1,574.5L616.1,574.5z"/>
	<path class="st45" d="M614.1,575.6l-0.9-0.5c-0.1-0.1-0.3-0.1-0.4,0l-0.9,0.5c-0.1,0.1-0.1,0.3,0,0.3l0.9,0.6
		c0.1,0.1,0.3,0.1,0.4,0l0.9-0.5C614.2,575.9,614.2,575.7,614.1,575.6L614.1,575.6z"/>
	<path class="st45" d="M611.9,576.8l-0.9-0.5c-0.1-0.1-0.3-0.1-0.4,0l-0.9,0.5c-0.1,0.1-0.1,0.3,0,0.3l0.9,0.6
		c0.1,0.1,0.3,0.1,0.4,0l0.9-0.5C612.1,577,612.1,576.9,611.9,576.8L611.9,576.8z"/>
	<path class="st45" d="M610,577.9l-0.9-0.5c-0.1-0.1-0.3-0.1-0.4,0l-0.9,0.5c-0.1,0.1-0.1,0.3,0,0.3l0.9,0.6c0.1,0.1,0.3,0.1,0.4,0
		l0.9-0.5C610.2,578.2,610.2,578,610,577.9L610,577.9z"/>
	<path class="st45" d="M608.1,579.1l-0.9-0.5c-0.1-0.1-0.3-0.1-0.4,0l-0.9,0.5c-0.1,0.1-0.1,0.3,0,0.3l0.9,0.6
		c0.1,0.1,0.3,0.1,0.4,0l0.9-0.5C608.2,579.4,608.2,579.2,608.1,579.1L608.1,579.1z"/>
	<path class="st45" d="M606,580.2l-0.9-0.5c-0.1-0.1-0.3-0.1-0.4,0l-0.9,0.5c-0.1,0.1-0.1,0.3,0,0.3l0.9,0.6c0.1,0.1,0.3,0.1,0.4,0
		l0.9-0.5C606.2,580.5,606.2,580.3,606,580.2L606,580.2z"/>
	<path class="st45" d="M604,581.4l-0.9-0.5c-0.1-0.1-0.3-0.1-0.4,0l-0.9,0.5c-0.1,0.1-0.1,0.3,0,0.3l0.9,0.6c0.1,0.1,0.3,0.1,0.4,0
		l0.9-0.5C604.1,581.6,604.1,581.5,604,581.4L604,581.4z"/>
	<path class="st45" d="M602,582.6l-0.9-0.5c-0.1-0.1-0.3-0.1-0.4,0l-0.9,0.5c-0.1,0.1-0.1,0.3,0,0.3l0.9,0.6c0.1,0.1,0.3,0.1,0.4,0
		l0.9-0.5C602.1,582.9,602.1,582.7,602,582.6L602,582.6z"/>
	<path class="st45" d="M599.9,583.9l-0.9-0.5c-0.1-0.1-0.3-0.1-0.4,0l-0.9,0.5c-0.1,0.1-0.1,0.3,0,0.3l0.9,0.6
		c0.1,0.1,0.3,0.1,0.4,0l0.9-0.5C600,584.1,600,584,599.9,583.9L599.9,583.9z"/>
	<path class="st45" d="M597.9,584.9l-0.9-0.5c-0.1-0.1-0.3-0.1-0.4,0l-0.9,0.5c-0.1,0.1-0.1,0.3,0,0.3l0.9,0.6
		c0.1,0.1,0.3,0.1,0.4,0l0.9-0.5C598,585.2,598,585,597.9,584.9L597.9,584.9z"/>
	<path class="st45" d="M620.3,574.4l-0.9-0.5c-0.1-0.1-0.3-0.1-0.4,0l-0.9,0.5c-0.1,0.1-0.1,0.3,0,0.3l0.9,0.6
		c0.1,0.1,0.3,0.1,0.4,0l0.9-0.5C620.5,574.7,620.5,574.5,620.3,574.4L620.3,574.4z"/>
	<path class="st45" d="M618.2,575.6l-0.9-0.5c-0.1-0.1-0.3-0.1-0.4,0l-0.9,0.5c-0.1,0.1-0.1,0.3,0,0.3l0.9,0.6
		c0.1,0.1,0.3,0.1,0.4,0l0.9-0.5C618.4,575.9,618.4,575.7,618.2,575.6L618.2,575.6z"/>
	<path class="st45" d="M616.2,576.7l-0.9-0.5c-0.1-0.1-0.3-0.1-0.4,0l-0.9,0.5c-0.1,0.1-0.1,0.3,0,0.3l0.9,0.6
		c0.1,0.1,0.3,0.1,0.4,0l0.9-0.5C616.3,577,616.3,576.8,616.2,576.7L616.2,576.7z"/>
	<path class="st45" d="M614,577.9l-0.9-0.5c-0.1-0.1-0.3-0.1-0.4,0l-0.9,0.5c-0.1,0.1-0.1,0.3,0,0.3l0.9,0.6c0.1,0.1,0.3,0.1,0.4,0
		l0.9-0.5C614.2,578.2,614.2,578,614,577.9L614,577.9z"/>
	<path class="st45" d="M612.1,579l-0.9-0.5c-0.1-0.1-0.3-0.1-0.4,0l-0.9,0.5c-0.1,0.1-0.1,0.3,0,0.3l0.9,0.6c0.1,0.1,0.3,0.1,0.4,0
		l0.9-0.5C612.3,579.3,612.3,579.1,612.1,579L612.1,579z"/>
	<path class="st45" d="M610.2,580.2l-0.9-0.5c-0.1-0.1-0.3-0.1-0.4,0l-0.9,0.5c-0.1,0.1-0.1,0.3,0,0.3l0.9,0.6
		c0.1,0.1,0.3,0.1,0.4,0l0.9-0.5C610.3,580.5,610.3,580.3,610.2,580.2L610.2,580.2z"/>
	<path class="st45" d="M608.1,581.4l-0.9-0.5c-0.1-0.1-0.3-0.1-0.4,0l-0.9,0.5c-0.1,0.1-0.1,0.3,0,0.3l0.9,0.6
		c0.1,0.1,0.3,0.1,0.4,0l0.9-0.5C608.3,581.6,608.3,581.4,608.1,581.4L608.1,581.4z"/>
	<path class="st45" d="M606.1,582.5l-0.9-0.5c-0.1-0.1-0.3-0.1-0.4,0l-0.9,0.5c-0.1,0.1-0.1,0.3,0,0.3l0.9,0.6
		c0.1,0.1,0.3,0.1,0.4,0l0.9-0.5C606.2,582.8,606.2,582.6,606.1,582.5L606.1,582.5z"/>
	<path class="st45" d="M604.1,583.7l-0.9-0.5c-0.1-0.1-0.3-0.1-0.4,0l-0.9,0.5c-0.1,0.1-0.1,0.3,0,0.3l0.9,0.6
		c0.1,0.1,0.3,0.1,0.4,0l0.9-0.5C604.2,584,604.2,583.8,604.1,583.7L604.1,583.7z"/>
	<path class="st45" d="M601.9,585l-0.9-0.5c-0.1-0.1-0.3-0.1-0.4,0l-0.9,0.5c-0.1,0.1-0.1,0.3,0,0.3l0.9,0.6c0.1,0.1,0.3,0.1,0.4,0
		l0.9-0.5C602.1,585.3,602.1,585.1,601.9,585L601.9,585z"/>
	<path class="st45" d="M600,586.1l-0.9-0.5c-0.1-0.1-0.3-0.1-0.4,0l-0.9,0.5c-0.1,0.1-0.1,0.3,0,0.3l0.9,0.6c0.1,0.1,0.3,0.1,0.4,0
		l0.9-0.5C600.1,586.3,600.1,586.2,600,586.1L600,586.1z"/>
	<path class="st45" d="M622.4,575.5l-0.9-0.5c-0.1-0.1-0.3-0.1-0.4,0l-0.9,0.5c-0.1,0.1-0.1,0.3,0,0.3l0.9,0.6
		c0.1,0.1,0.3,0.1,0.4,0l0.9-0.5C622.5,575.8,622.5,575.6,622.4,575.5L622.4,575.5z"/>
	<path class="st45" d="M620.3,576.7l-0.9-0.5c-0.1-0.1-0.3-0.1-0.4,0l-0.9,0.5c-0.1,0.1-0.1,0.3,0,0.3l0.9,0.6
		c0.1,0.1,0.3,0.1,0.4,0l0.9-0.5C620.4,577,620.4,576.8,620.3,576.7L620.3,576.7z"/>
	<path class="st45" d="M618.3,577.9l-0.9-0.5c-0.1-0.1-0.3-0.1-0.4,0l-0.9,0.5c-0.1,0.1-0.1,0.3,0,0.3l0.9,0.6
		c0.1,0.1,0.3,0.1,0.4,0l0.9-0.5C618.4,578.1,618.4,577.9,618.3,577.9L618.3,577.9z"/>
	<path class="st45" d="M616.1,579l-0.9-0.5c-0.1-0.1-0.3-0.1-0.4,0l-0.9,0.5c-0.1,0.1-0.1,0.3,0,0.3l0.9,0.6c0.1,0.1,0.3,0.1,0.4,0
		l0.9-0.5C616.2,579.3,616.2,579.1,616.1,579L616.1,579z"/>
	<path class="st45" d="M614,580.3l-0.9-0.5c-0.1-0.1-0.3-0.1-0.4,0l-4.8,2.7c-0.1,0.1-0.1,0.3,0,0.3l0.9,0.6c0.1,0.1,0.3,0.1,0.4,0
		l4.8-2.8C614.2,580.6,614.2,580.4,614,580.3z"/>
	<path class="st45" d="M608.2,583.6l-0.9-0.5c-0.1-0.1-0.3-0.1-0.4,0l-0.9,0.5c-0.1,0.1-0.1,0.3,0,0.3l0.9,0.6
		c0.1,0.1,0.3,0.1,0.4,0l0.9-0.5C608.3,583.9,608.3,583.7,608.2,583.6L608.2,583.6z"/>
	<path class="st45" d="M606.2,584.9l-0.9-0.5c-0.1-0.1-0.3-0.1-0.4,0l-0.9,0.5c-0.1,0.1-0.1,0.3,0,0.3l0.9,0.6
		c0.1,0.1,0.3,0.1,0.4,0l0.9-0.5C606.3,585.1,606.3,584.9,606.2,584.9L606.2,584.9z"/>
	<path class="st45" d="M604,586.1l-0.9-0.6c-0.1-0.1-0.3-0.1-0.4,0l-0.9,0.5c-0.1,0.1-0.1,0.3,0,0.3l0.9,0.6c0.1,0.1,0.3,0.1,0.4,0
		l0.9-0.5C604.1,586.4,604.1,586.2,604,586.1z"/>
	<path class="st45" d="M602.1,587.2l-0.9-0.5c-0.1-0.1-0.3-0.1-0.4,0l-0.9,0.5c-0.1,0.1-0.1,0.3,0,0.3l0.9,0.6
		c0.1,0.1,0.3,0.1,0.4,0l0.9-0.5C602.2,587.5,602.2,587.3,602.1,587.2L602.1,587.2z"/>
</g>
<path class="st1" d="M607.4,561c0-0.1-0.1-0.2-0.2-0.1l-12.6,6.9c-0.1,0.1-0.2,0.2-0.2,0.3v8.8c0,0.1,0.1,0.2,0.2,0.1l12.6-6.9
	c0.1-0.1,0.2-0.2,0.2-0.3V561z"/>
<path class="st47" d="M594.9,562.2l-4.2,2.5v1.4l4.2-2.4V562.2z"/>
<path class="st47" d="M605.5,558.4l-14.8,8.6v0.9l14.8-8.7V558.4z"/>
<path class="st65" d="M623.5,582.1c0.1,0.3,0,0.7-0.3,0.9l-2.5,1.1c-0.3,0.1-0.7,0-0.9-0.3s0-0.7,0.3-0.9l2.5-1.1
	C623,581.7,623.3,581.8,623.5,582.1z"/>
<path class="st65" d="M625.8,583.6c-0.4,0-0.8-0.1-1.2-0.2l-4.6-0.8c-1.1-0.2-1.8-1.2-1.6-2.3s1.2-1.8,2.3-1.6l4.6,0.8
	c5.5,0.9,8.1,2.1,10.8-2.9c0.5-1,1.7-1.3,2.7-0.8s1.3,1.7,0.8,2.7C636.2,584.6,632.6,584.2,625.8,583.6z"/>
<path class="st42" d="M631.1,641l1-0.3c1.6-0.5,3.4-0.2,4.8,0.8l1-0.8l1.1,2.5l5.1-0.4l-1.1,4.6c-0.1,0.3-0.3,0.5-0.6,0.6l-2.1,0.6
	c-1.8,0.5-3.7,0.1-5-1.2l-4.7-4.4C630,642.3,630.3,641.3,631.1,641L631.1,641z"/>
<path class="st1" d="M631.1,641l1-0.3c1.6-0.5,3.4-0.2,4.8,0.8l1-0.8l1.1,2.5l5.1-0.4l-0.6,2.4c-0.3,1-1.1,1.9-2.1,2.2l-0.9,0.3
	c-1.8,0.5-3.7,0.1-5-1.2l-4.7-4.4c-0.2-0.2-0.3-0.4-0.3-0.6C630.7,641.2,630.9,641.1,631.1,641L631.1,641z"/>
<path class="st42" d="M638.3,642.7c-1.1-1-0.8-2.2,0.6-2.6s3.5,0.1,4.5,1.1c1.1,1,0.8,2.2-0.6,2.6
	C641.4,644.3,639.4,643.8,638.3,642.7z"/>
<path class="st65" d="M641.1,642.9c0.9,0,1.7-0.8,1.7-1.7v-6.5c0-0.9-0.8-1.7-1.7-1.7s-1.7,0.8-1.7,1.7v6.5
	C639.4,642.1,640.2,642.9,641.1,642.9z"/>
<path class="st42" d="M641.1,640.9L641.1,640.9c1.6-0.1,2.7,0.6,2.6-0.9l-0.7-16.9l0.7-25.5c0-1.5-1.1-2.7-2.6-2.7
	c-1.5-0.1-3.4,1.1-3.5,2.6v25.7v0.1l0.7,17C638.5,641.7,639.7,640.9,641.1,640.9L641.1,640.9z"/>
<path class="st42" d="M624,647.5l0.9-0.5c1.5-0.8,3.2-1,4.8-0.3l0.8-1l1.6,2.1l4.9-1.6v4.7c0,0.3-0.2,0.6-0.4,0.7l-1.9,1.1
	c-1.6,0.9-3.5,0.9-5.1,0l-5.6-3.2C623.3,649,623.3,648,624,647.5z"/>
<path class="st1" d="M624,647.5l0.9-0.5c1.5-0.8,3.2-1,4.8-0.3l0.8-1l1.6,2.1l4.9-1.6v2.4c0,1.1-0.6,2.1-1.5,2.6l-0.8,0.5
	c-1.6,0.9-3.5,0.9-5.1,0l-5.6-3.2c-0.2-0.1-0.3-0.3-0.4-0.5C623.7,647.8,623.8,647.6,624,647.5L624,647.5z"/>
<path class="st42" d="M631.4,647.5c-1.3-0.7-1.3-1.9,0-2.7c1.3-0.7,3.4-0.7,4.7,0s1.3,1.9,0,2.7
	C634.8,648.2,632.7,648.2,631.4,647.5z"/>
<path class="st65" d="M633.8,647.2c0.9,0,1.7-0.8,1.7-1.7V639c0-0.9-0.8-1.7-1.7-1.7s-1.7,0.8-1.7,1.7v6.5
	C632.1,646.4,632.8,647.2,633.8,647.2z"/>
<path class="st42" d="M633.8,645.8h0.2c1.5-0.1,2.6,0,2.4-1.4L635,625l5.8-25.1c0.1-1.5-5.4-0.4-6.8-0.5c-1.5-0.1-2.7,1-2.8,2.5
	l-1.5,23.2l1.5,19.8C631.2,646.2,632.4,645.8,633.8,645.8z"/>
<path class="st48" d="M639.4,568.8l-3.5,2c-3.7,2.1-6,6.1-6,10.4V605c3.4,2.4,12.5-0.9,14.3-4.6l-0.5-5.2c-0.3-2.1-0.4-4.1-0.3-6.2
	l0.6-17.2C644.2,569.2,641.5,567.6,639.4,568.8z"/>
<path class="st65" d="M614.6,588.9c-0.2,0.3-0.7,0.3-0.9,0l-1.3-1.3c-0.3-0.3-0.3-0.7,0-0.9c0.2-0.3,0.7-0.3,0.9,0l1.3,1.3
	C614.9,588.3,614.9,588.7,614.6,588.9z"/>
<path class="st141" d="M635.1,576.2c-1.2-0.3-1.9,1-2.2,2.3l-1.6,2.7c-0.3,1.1-0.8,2.2-1.4,3.2v6.9c2.7-2.2,4.8-5.3,5.8-8.8l0.9-3.4
	C637.1,577.8,636.3,576.5,635.1,576.2z"/>
<path class="st65" d="M637.7,573.6c-0.8,0-1.5-0.7-1.5-1.5v-6.8h2.9v6.8C639.2,573,638.5,573.6,637.7,573.6z"/>
<path class="st65" d="M641.2,569.9H641c-4.8,0-8.7-3.9-8.7-8.7v-3.9h8.8L641.2,569.9z"/>
<path class="st142" d="M644.1,563.7c0-0.3,0-0.7,0-1c0-1.3,0.1-2.6-0.1-3.8c-0.2-1.6-1-3.2-2.5-3.9c-0.9-0.4-1.9-0.4-2.8-0.4
	c-2,0-3.9,0-5.9,0c-0.9,0-1.8,0-2.5,0.5c-1.4,0.9-0.7,2.7,0.1,3.8c0.4,0.6,1,1.1,1.7,1.4c0.6,0.3,1.7,0,2.1,0.7
	c0.6,0.9-0.5,3.7,0.7,4.1c1,0.3,0.8-0.7,1-1.3c0.1-0.3,0.4-0.7,0.7-0.7c0.5,0,0.8,0.5,0.8,0.9c0.2,0.9-0.1,1.8-0.2,2.7
	s0,1.9,0.7,2.5c0.2,0.2,0.5,0.4,0.8,0.5c0.9,0.3,2.5,0.7,3.3,0.1c1.2-0.9,1.9-1.8,2-3.4C644.2,565.5,644.1,564.6,644.1,563.7
	L644.1,563.7z"/>
<path class="st65" d="M619.6,592.3c-0.4,0-0.8,0-1.3,0l-7.1-0.4c-1.1-0.1-1.9-1-1.9-2.1c0.1-1.1,1-1.9,2.1-1.9l7.2,0.4
	c5.7,0.4,10.9-2.8,13.1-8l1.3-3.2c0.4-1,1.6-1.5,2.6-1.1s1.5,1.6,1.1,2.6l-1.3,3.2C632.6,588.3,626.4,592.3,619.6,592.3L619.6,592.3
	z"/>
<path class="st48" d="M629.2,583.7c0.9-1,1.6-2.1,2.1-3.4l1.3-3.2c0.5-1.2,1.8-1.7,3-1.2s1.7,1.8,1.2,3l-1.3,3.2
	c-0.7,1.6-1.6,3.1-2.7,4.4L629.2,583.7z"/>
<path class="st142" d="M636.3,567.6c-0.3-0.3-0.6-0.7-0.7-1.1c-0.1-0.3,0-0.5,0-0.8c0-0.2,0.1-0.5,0.1-0.7s0.1-0.5,0-0.7
	s-0.3-0.4-0.5-0.5s-0.5-0.1-0.8-0.1h-0.1v0.1c0,0.4,0.1,0.7,0,1c-0.1,0.4-0.8,1-1.1,0.5c0-0.1-0.1-0.1-0.1-0.2
	c-0.1-0.2-0.4-0.3-0.6-0.3c-0.1,0-0.2,0-0.2,0c-0.1,0-0.1,0.1-0.1,0.2s0,0.1,0.1,0.2c0.2,0.4,0.2,0.9,0.2,1.3c0,1,0.9,1.9,1.7,2.4
	c0.6,0.4,1.5,0.5,2.1,0.1l0.3-0.3C636.8,568.5,636.6,568,636.3,567.6L636.3,567.6z"/>
<g class="st143">
	<path d="M144.1,614.3l1.8,1l-3.4,3.4c-1.2,1.2-3.4,0-4.8-2.8l-4-7.6l1.8,1l3,5.8c0.9,1.7,2.3,2.5,3,1.8L144.1,614.3z"/>
	<path d="M136.3,624.6l-1.8-1l3.4-3.4c1.2-1.2,3.4,0,4.8,2.8l4,7.6l-1.8-1l-3-5.8c-0.9-1.7-2.3-2.5-3-1.8L136.3,624.6z"/>
</g>
<g class="st144">
	<path d="M604.6,563.5l1.3-0.7l-3,4.1c-1.1,1.5-2.6,2.4-3.5,2l-2.3-1l1.3-0.7l1.8,0.7c0.5,0.2,1.5-0.4,2.2-1.3L604.6,563.5z"/>
	<path d="M597.5,574.1l-1.3,0.7l3-4.1c1.1-1.5,2.6-2.4,3.5-2l2.4,1l-1.3,0.7l-1.8-0.7c-0.5-0.2-1.5,0.4-2.2,1.3L597.5,574.1z"/>
</g>
</svg>
